<svg width="200" height="200" viewBox="0 0 200 200" fill="none" xmlns="http://www.w3.org/2000/svg">
<path d="M186.93 39.8194C186.93 33.0215 181.42 27.5107 174.622 27.5107H14.5123C9.25882 27.5107 5 31.7695 5 37.023C5 42.2766 9.25882 46.5354 14.5123 46.5354H52.4258C55.7276 46.5354 58.4043 49.212 58.4043 52.5138C58.4043 55.8157 55.7276 58.4923 52.4258 58.4923H25.4804C20.2268 58.4923 15.968 62.7511 15.968 68.0047C15.968 73.2582 20.2268 77.517 25.4804 77.517H39.4341C51.0585 77.517 60.4819 86.9405 60.4819 98.5649C60.4819 110.189 51.0585 119.613 39.4341 119.613H14.5123C9.25882 119.613 5 123.872 5 129.125C5 134.379 9.25882 138.637 14.5123 138.637H172.839C176.047 138.637 178.647 136.037 178.647 132.83C178.647 129.622 176.047 127.022 172.839 127.022H113.478C110.303 127.022 107.728 124.447 107.728 121.272C107.728 118.096 110.303 115.521 113.478 115.521H182.068C189.21 115.521 195 109.731 195 102.589C195 95.4464 189.21 89.6564 182.068 89.6564H160.086C149.723 89.6564 141.322 81.2554 141.322 70.8923C141.322 60.5292 149.723 52.1282 160.086 52.1282H174.622C181.42 52.1282 186.93 46.6174 186.93 39.8194Z" fill="#D7F3FE"/>
<path d="M159.749 129.984L123.249 116.798C122.068 116.371 121.28 115.249 121.28 113.992V34.514C121.28 33.2575 122.068 32.1358 123.249 31.7088L159.749 18.5225C161.693 17.8201 163.745 19.2605 163.745 21.3278V127.179C163.745 129.246 161.693 130.686 159.749 129.984Z" fill="#3EA8D0"/>
<path d="M155.892 58.6548C151.391 59.1615 146.901 59.7995 142.424 60.4898C140.183 60.8353 137.945 61.1999 135.71 61.5835C133.445 61.9724 131.135 62.3019 128.901 62.8488C128.511 62.9442 128.583 63.6225 128.999 63.5674C131.192 63.2765 133.373 62.8082 135.555 62.4371C137.791 62.0568 140.03 61.6957 142.273 61.3535C146.803 60.6622 151.346 60.0757 155.893 59.5063C156.427 59.4394 156.44 58.5932 155.892 58.6548Z" fill="#F5EDF2"/>
<path d="M156.958 43.9057C153.294 44.0621 149.634 44.4606 146.03 45.1429C145.56 45.2318 145.763 45.9314 146.226 45.855C149.782 45.268 153.357 44.8655 156.958 44.6922C157.461 44.668 157.465 43.8841 156.958 43.9057Z" fill="#F5EDF2"/>
<path d="M146.778 36.5609C143.005 37.1297 139.24 37.7553 135.49 38.4663C135.038 38.5521 135.231 39.2349 135.68 39.1553C139.44 38.4887 143.207 37.8648 146.985 37.3126C147.479 37.2405 147.27 36.4867 146.778 36.5609Z" fill="#F5EDF2"/>
<path d="M106.308 172.985C100.734 169.22 100.675 169.18 92.3166 163.534C91.5091 162.986 90.5347 162.666 89.4852 162.666C87.337 162.666 85.507 164.01 84.7776 165.901L84.7741 165.899C83.548 169.079 82.4881 171.828 81.5943 174.146L81.5969 174.148C81.4384 174.559 81.348 175.004 81.348 175.47C81.348 177.503 82.9958 179.151 85.0285 179.151H104.43C106.291 179.151 107.799 177.643 107.799 175.782C107.799 174.616 107.207 173.589 106.308 172.985Z" fill="#5BBEE5"/>
<path d="M105.249 176.428H84.2357C83.105 176.428 82.0865 175.955 81.361 175.199C81.3542 175.289 81.348 175.379 81.348 175.47C81.348 177.503 82.9958 179.151 85.0285 179.151H104.43C106.291 179.151 107.799 177.643 107.799 175.782C107.799 175.655 107.789 175.531 107.776 175.408C107.12 176.039 106.231 176.428 105.249 176.428Z" fill="#3EA8D0"/>
<path d="M67.0174 176.077C62.6185 170.989 62.5719 170.935 55.975 163.305C55.3383 162.565 54.4813 162.002 53.4681 161.728C51.3943 161.168 49.2771 161.988 48.0798 163.623L48.0769 163.62C46.0639 166.371 44.3236 168.748 42.8562 170.753L42.8583 170.756C42.5982 171.111 42.3948 171.517 42.2731 171.967C41.743 173.93 42.9041 175.95 44.8664 176.48C51.9727 178.4 57.0924 179.783 63.597 181.54C65.3932 182.025 67.2427 180.963 67.7279 179.166C68.0319 178.041 67.7281 176.895 67.0174 176.077Z" fill="#5BBEE5"/>
<path d="M65.0974 179.125C58.0526 177.222 52.5077 175.724 44.8112 173.645C43.7196 173.35 42.8597 172.628 42.3565 171.709C42.3265 171.794 42.2971 171.879 42.2732 171.967C41.7431 173.93 42.9042 175.95 44.8665 176.48C51.9728 178.4 57.0924 179.783 63.5971 181.54C65.3933 182.025 67.2427 180.962 67.7279 179.166C67.761 179.044 67.7837 178.922 67.8026 178.799C67.0051 179.237 66.045 179.381 65.0974 179.125Z" fill="#3EA8D0"/>
<path d="M90.8325 170.635C86.572 170.635 82.7968 167.582 82.0302 163.24L71.1671 101.716C70.3077 96.8489 73.5567 92.2066 78.4238 91.3471C83.2894 90.4866 87.9333 93.7362 88.7928 98.6038L99.6559 160.128C100.515 164.995 97.2663 169.638 92.3992 170.497C91.873 170.59 91.3489 170.635 90.8325 170.635Z" fill="#343D4A"/>
<path d="M54.372 171.349C53.5492 171.349 52.7132 171.235 51.8832 170.995C47.135 169.623 44.3983 164.661 45.7704 159.913L63.6065 98.1918C64.9786 93.4436 69.9406 90.7064 74.6883 92.0787C79.4366 93.4511 82.1733 98.4125 80.8012 103.161L62.9651 164.882C61.833 168.8 58.2558 171.349 54.372 171.349Z" fill="#464F5F"/>
<path d="M61.4596 117.625L56.1043 136.772C55.6237 138.491 56.6271 140.273 58.3455 140.754L58.3455 140.754C60.0639 141.235 61.8466 140.231 62.3272 138.513L67.6824 119.366C68.163 117.647 67.1596 115.865 65.4412 115.384L65.4412 115.384C63.7228 114.903 61.9402 115.907 61.4596 117.625Z" fill="#5C687D"/>
<path d="M84.7005 66.6793C82.4195 66.6793 80.3403 65.1419 79.7495 62.8302C79.0504 60.0938 80.7019 57.3087 83.4383 56.6095L101.086 52.1005C103.821 51.4023 106.607 53.0531 107.307 55.7893C108.006 58.5257 106.354 61.3108 103.618 62.01L85.9702 66.519C85.5457 66.6274 85.1195 66.6793 84.7005 66.6793Z" fill="#5BBEE5"/>
<path d="M80.058 63.6988C80.8916 65.5185 82.7192 66.6793 84.7005 66.6793C85.1195 66.6793 85.5457 66.6274 85.9702 66.519L103.618 62.01C105.827 61.4454 107.328 59.5205 107.456 57.3597L80.058 63.6988Z" fill="#3EA8D0"/>
<path d="M102.873 63.3965C106.448 63.3965 109.347 60.4978 109.347 56.9222C109.347 53.3465 106.448 50.4479 102.873 50.4479C99.2971 50.4479 96.3984 53.3465 96.3984 56.9222C96.3984 60.4978 99.2971 63.3965 102.873 63.3965Z" fill="#464F5F"/>
<path d="M102.87 60.7584C101.159 60.7584 99.5997 59.6053 99.1567 57.8714C98.6324 55.8192 99.8711 53.7305 101.923 53.2061L125.801 47.1055C127.848 46.5804 129.942 47.8194 130.466 49.8721C130.99 51.9244 129.752 54.0131 127.699 54.5375L103.822 60.6381C103.504 60.7195 103.184 60.7584 102.87 60.7584Z" fill="#E9B1BD"/>
<path d="M90.843 96.4307C82.1086 101.565 71.0781 96.1034 66.7314 91.6288C69.4571 87.006 69.9736 83.1655 64.783 72.7436C61.8222 66.8013 64.241 59.5858 70.1832 56.63C76.1255 53.6742 83.341 56.093 86.2968 62.0353C92.9908 75.4846 94.5249 85.9372 90.843 96.4307Z" fill="#5BBEE5"/>
<path d="M56.3042 89.9763C55.6892 89.9763 55.0639 89.8644 54.4559 89.6287C51.8229 88.6069 50.5164 85.6445 51.5377 83.0112L60.0993 60.9422C61.1208 58.3094 64.0827 57.0027 66.7165 58.024C69.3496 59.0455 70.656 62.0082 69.6348 64.6412L61.0731 86.7107C60.2873 88.7358 58.3532 89.9763 56.3042 89.9763Z" fill="#5BBEE5"/>
<path d="M56.6925 90.9518C60.2482 90.9518 63.1307 88.0693 63.1307 84.5136C63.1307 80.9579 60.2482 78.0754 56.6925 78.0754C53.1368 78.0754 50.2543 80.9579 50.2543 84.5136C50.2543 88.0693 53.1368 90.9518 56.6925 90.9518Z" fill="#464F5F"/>
<path d="M77.2414 57.4156L72.8821 60.4917C73.9611 62.3137 75.9007 63.425 77.9595 63.168C80.3794 62.866 82.1768 60.7736 82.4405 58.2174L77.2414 57.4156Z" fill="#202630"/>
<path d="M77.6467 59.7906L74.3455 63.4419C73.379 64.5109 71.707 64.5308 70.7153 63.4852L67.1139 59.6877C66.6141 59.1607 66.7451 58.304 67.3795 57.9504L71.2412 55.7982L79.2806 54.3763L81.8019 55.4336C82.3595 55.6674 82.804 56.1094 83.0409 56.6657L84.1657 59.3066C84.5843 60.2894 83.6961 61.3262 82.6607 61.0634L77.6467 59.7906Z" fill="#464F5F"/>
<path d="M84.8947 36.8892C83.5799 28.0319 72.8542 28.7931 70.2247 29.2082C67.5951 29.6234 57.2846 34.2547 62.4053 38.2707C59.3606 42.0099 62.4745 47.1306 68.1487 47.3381L80.4866 56.458C85.0537 52.6473 91.1917 41.5947 84.8947 36.8892Z" fill="#352A27"/>
<path d="M76.5642 64.2567C75.6353 70.232 74.9332 73.8841 74.9332 73.8841L86.1616 76.9381L87.4235 72.3206C88.2422 68.0424 83.0667 62.727 76.5642 64.2567Z" fill="#DCD0CE"/>
<path d="M87.4576 72.3206C87.233 68.6858 86.4304 62.9608 94.7655 62.502C95.0066 68.7878 94.7306 76.9381 94.7306 76.9381" fill="#DCD0CE"/>
<path d="M87.4235 72.3206L85.6848 78.683L94.0148 83.0741C94.0148 83.0741 96.9342 68.905 97.6641 65.1229C92.0242 62.9997 88.5739 66.965 87.4235 72.3206Z" fill="#F4F0EF"/>
<path d="M83.0432 88.3488L87.4235 72.3206C85.9702 66.519 77.8483 65.5487 73.6738 67.7751C73.0244 73.4338 72.1027 85.5648 72.1027 85.5648C75.7147 83.4525 81.1879 83.5045 83.0432 88.3488Z" fill="#7176AE"/>
<path d="M87.4235 72.3206L83.0432 88.3488C83.0432 88.3488 91.3921 82.113 96.7725 88.3488C100.39 76.3095 101.875 71.8568 101.875 71.8568C101.225 67.404 91.5255 66.9402 87.4235 72.3206Z" fill="#45498A"/>
<path d="M56.6882 88.3488C54.7188 88.3488 53.0433 86.8411 52.8713 84.8425C52.6893 82.7326 54.2526 80.8741 56.363 80.6923L79.5075 78.6977C81.6204 78.5134 83.4764 80.0793 83.6579 82.1897C83.84 84.2997 82.2766 86.1579 80.1662 86.3402L57.0217 88.3348C56.9099 88.3443 56.7983 88.3488 56.6882 88.3488Z" fill="#E9B1BD"/>
<path d="M80.5813 78.0323L76.0827 79.1466L74.9332 84.7475L81.6578 87.1675C83.1808 87.7155 84.8794 87.1208 85.7279 85.7424L86.5409 84.4219C87.4872 82.8845 87.0471 80.874 85.545 79.8726L83.5647 78.5524C82.6875 77.9675 81.6047 77.7788 80.5813 78.0323Z" fill="#E9B1BD"/>
<path d="M90.843 96.4307C89.6208 99.9081 87.831 103.385 85.4633 106.98C83.1519 110.483 79.3216 112.386 75.4198 112.386C73.1493 112.386 70.8532 111.747 68.8179 110.402C63.2745 106.75 61.7404 99.2995 65.3916 93.7562C65.8826 93.0147 66.3326 92.309 66.7314 91.6288C71.0782 96.1034 82.1086 101.565 90.843 96.4307Z" fill="#464F5F"/>
<path d="M124.743 47.4859L124.678 47.8213L124.305 54.3763L128.452 54.5206C129.652 54.5623 130.779 53.9485 131.395 52.9184L137.599 44.4597L132.755 42.9939C132.737 42.9872 132.719 42.9805 132.701 42.9737C129.237 41.6847 125.446 43.8578 124.743 47.4859Z" fill="#E9B1BD"/>
<path d="M137.04 51.6919C136.967 51.6919 136.894 51.6867 136.821 51.6762C135.982 51.5563 135.399 50.7793 135.519 49.9406L135.858 47.5669L131.683 47.6581C131.671 47.6583 131.66 47.6583 131.649 47.6583C130.817 47.6583 130.133 46.9934 130.115 46.1576C130.097 45.3107 130.769 44.609 131.616 44.5903L137.599 44.4597C138.048 44.452 138.481 44.639 138.78 44.9758C139.079 45.3129 139.215 45.7644 139.151 46.2106L138.556 50.3745C138.447 51.1396 137.791 51.6919 137.04 51.6919Z" fill="#E9B1BD"/>
<path d="M144.441 48.9139H135.609C134.886 48.9139 134.299 49.5002 134.299 50.2234V50.8188C134.299 51.5419 134.886 52.1282 135.609 52.1282H144.441C145.164 52.1282 145.75 51.5419 145.75 50.8188V50.2234C145.75 49.5002 145.164 48.9139 144.441 48.9139Z" fill="white"/>
<path d="M133.691 55.6329C133.581 55.6329 133.471 55.6212 133.362 55.5972L127.264 54.2586C126.437 54.0768 125.913 53.2588 126.095 52.4313C126.277 51.6036 127.093 51.0772 127.923 51.2617L133.3 52.4423L135.163 50.9351C135.823 50.403 136.789 50.5051 137.321 51.1636C137.854 51.8223 137.752 52.7884 137.093 53.3212L134.656 55.2918C134.38 55.5146 134.039 55.6329 133.691 55.6329Z" fill="#E9B1BD"/>
<path d="M159.063 43.9647C158.652 43.9647 158.651 44.6039 159.063 44.6039C159.474 44.6039 159.475 43.9647 159.063 43.9647Z" fill="#F5EDF2"/>
<path d="M77.9972 50.0592H70.3844L70.3955 57.4058C69.7174 57.684 69.0606 58.0034 68.428 58.3611L77.1249 59.3099L80.4866 56.458L77.9972 50.0592Z" fill="#E9B1BD"/>
<path d="M79.8781 54.894C78.0357 56.5333 75.6756 57.518 73.1024 57.518C72.1652 57.518 71.2611 57.3743 70.3951 57.1291L70.3844 50.0593H77.9973L79.8781 54.894Z" fill="#E998A6"/>
<path d="M83.4839 47.7238H81.3846V43.4406H83.4839C84.3892 43.4406 85.1231 44.1745 85.1231 45.0798V46.0846C85.1231 46.9899 84.3892 47.7238 83.4839 47.7238Z" fill="#E9B1BD"/>
<path d="M83.2538 46.603C83.7757 46.603 84.1987 46.146 84.1987 45.5822C84.1987 45.0184 83.7757 44.5614 83.2538 44.5614C82.732 44.5614 82.309 45.0184 82.309 45.5822C82.309 46.146 82.732 46.603 83.2538 46.603Z" fill="#E998A6"/>
<path d="M70.9008 42.7562C72.9278 41.7935 74.6872 39.9588 75.3563 37.6786C75.9819 39.4711 77.3414 43.1141 82.7526 42.8304V46.3802C82.7526 51.753 78.7211 56.1085 73.7479 56.1085C68.7748 56.1085 64.7432 51.753 64.7432 46.3802V43.7858C66.8406 43.8989 68.9816 43.6677 70.9008 42.7562Z" fill="#E9B1BD"/>
<path d="M76.4719 48.5264C76.4889 48.5859 76.5074 48.6446 76.5208 48.7059C76.8765 50.3268 75.8507 51.9292 74.2299 52.2848C72.6089 52.6404 71.0065 51.6146 70.6509 49.9937C70.6375 49.9324 70.6298 49.8713 70.6202 49.8102L76.4719 48.5264Z" fill="#84344F"/>
<path d="M74.613 50.5049C75.1875 50.4324 75.7431 50.5405 76.2231 50.7845C75.821 51.5227 75.1155 52.0905 74.23 52.2848C73.6016 52.4226 72.9771 52.3509 72.426 52.1194C72.8134 51.2684 73.6171 50.6306 74.613 50.5049Z" fill="#CB667F"/>
<path d="M76.5209 48.7059C76.5734 48.9453 76.5924 49.1837 76.5871 49.4183L70.9414 50.7723C70.8127 50.5326 70.7122 50.2727 70.651 49.9937C70.6374 49.9324 70.6299 49.8713 70.6202 49.8101L76.4719 48.5264C76.4889 48.5859 76.5075 48.6446 76.5209 48.7059Z" fill="white"/>
<path d="M73.6716 46.4824C74.0322 46.4299 74.271 46.0202 74.2051 45.5673C74.1392 45.1143 73.7934 44.7897 73.4328 44.8422C73.0722 44.8947 72.8334 45.3044 72.8993 45.7573C72.9652 46.2103 73.311 46.5349 73.6716 46.4824Z" fill="#34374E"/>
<path d="M69.148 47.141C69.5085 47.0885 69.7474 46.6788 69.6815 46.2258C69.6155 45.7729 69.2698 45.4483 68.9092 45.5008C68.5486 45.5533 68.3097 45.963 68.3757 46.4159C68.4416 46.8688 68.7874 47.1935 69.148 47.141Z" fill="#34374E"/>
<path d="M60.9613 63.0999L58.9551 68.5972C58.565 69.6659 59.1152 70.8486 60.184 71.2386C61.2527 71.6287 62.4354 71.0785 62.8254 70.0097L64.8317 64.5124C65.2218 63.4437 64.6716 62.261 63.6028 61.871C62.534 61.4809 61.3514 62.0311 60.9613 63.0999Z" fill="#9DD8EF"/>
<path d="M120.552 50.792L110.188 53.2983C109.598 53.441 109.235 54.0351 109.378 54.6251C109.521 55.2152 110.115 55.5779 110.705 55.4352L121.069 52.9288C121.659 52.7861 122.022 52.1921 121.879 51.602C121.736 51.0119 121.142 50.6493 120.552 50.792Z" fill="#F5D0D8"/>
</svg>
