<svg width="324" height="323" viewBox="0 0 324 323" fill="none" xmlns="http://www.w3.org/2000/svg">
<path d="M313.116 253.981C315.966 256.835 317.948 260.439 318.83 264.375C319.712 268.311 319.459 272.416 318.099 276.213C317.826 276.976 317.509 277.722 317.15 278.449C315.809 281.156 313.907 283.547 311.572 285.464C309.236 287.38 306.52 288.779 303.603 289.566C302.754 289.797 301.891 289.973 301.019 290.093C300.049 290.227 299.072 290.293 298.093 290.293H31.7728C26.8172 290.298 22.0167 288.565 18.2068 285.396C17.6965 284.966 17.2077 284.521 16.7404 284.062C16.4788 283.801 16.2204 283.533 15.9717 283.255C15.6487 282.903 15.3483 282.541 15.0576 282.166C14.1464 281.013 13.3594 279.767 12.7094 278.449C12.6222 278.274 12.5382 278.1 12.4574 277.922C12.199 277.362 11.9665 276.793 11.7598 276.213C10.5364 272.825 10.1952 269.181 10.7682 265.625C11.3411 262.069 12.8094 258.716 15.035 255.884C15.3257 255.509 15.6325 255.147 15.9491 254.795C17.9417 252.572 20.3811 250.795 23.1079 249.579C25.8347 248.363 28.7874 247.737 31.7728 247.741H59.5056C59.8545 247.741 60.2001 247.728 60.5424 247.702C61.4212 247.639 62.292 247.492 63.1426 247.263C63.8849 247.064 64.6089 246.803 65.3067 246.481C66.8226 245.786 68.2028 244.827 69.3829 243.649C70.6828 242.353 71.7136 240.814 72.4159 239.119C73.1183 237.424 73.4783 235.606 73.4754 233.771C73.4763 233.242 73.4461 232.714 73.3849 232.189C73.0655 229.407 71.9184 226.786 70.0923 224.664C68.2663 222.542 65.8452 221.017 63.1426 220.286C62.2918 220.057 61.4212 219.91 60.5424 219.847C60.2001 219.821 59.8545 219.808 59.5056 219.808H55.1516C52.7268 219.81 50.3096 219.539 47.9454 219H47.9228C47.8679 219 47.813 218.978 47.7581 218.962C47.5772 218.923 47.3996 218.878 47.2219 218.832L46.9571 218.765C46.7245 218.703 46.4919 218.642 46.2626 218.574C46.0333 218.506 45.875 218.461 45.6844 218.4C44.2349 217.964 42.8186 217.424 41.4467 216.785C41.1431 216.643 40.8394 216.497 40.5423 216.342C40.0513 216.093 39.5733 215.835 39.0952 215.56C38.2016 215.05 37.3403 214.497 36.5112 213.9C35.8136 213.406 35.1385 212.883 34.4828 212.337C33.7334 211.712 33.0142 211.056 32.3252 210.367C26.6793 204.747 23.3186 197.233 22.8936 189.278C22.8806 189.039 22.871 188.8 22.8645 188.561C22.8645 188.209 22.8451 187.854 22.8451 187.501C22.8451 187.346 22.8451 187.178 22.8451 187.04C22.8626 185.743 22.9575 184.449 23.1294 183.164C23.7214 178.77 25.2133 174.545 27.5119 170.753C29.8106 166.962 32.8664 163.685 36.4886 161.129C37.2811 160.564 38.0983 160.038 38.9402 159.549C38.9887 159.52 39.0371 159.491 39.0888 159.465C40.5371 158.63 42.0492 157.911 43.6108 157.314C44.2891 157.052 44.9771 156.816 45.6748 156.6C46.3724 156.384 47.1573 156.177 47.9131 156.006C50.2844 155.463 52.7093 155.19 55.1419 155.192H78.9341C81.8872 155.19 84.7671 154.273 87.177 152.566C87.8283 152.102 88.4398 151.584 89.0052 151.019C91.4749 148.559 92.9544 145.277 93.1622 141.797C93.1784 141.522 93.188 141.245 93.188 140.964C93.1874 138.829 92.7073 136.722 91.7831 134.797C90.859 132.873 89.5145 131.181 87.8489 129.846C87.6325 129.672 87.4128 129.523 87.1867 129.349C86.3755 128.768 85.5037 128.278 84.5866 127.885C84.3637 127.785 84.1376 127.695 83.9083 127.611C82.3203 127.018 80.6387 126.716 78.9438 126.719H35.4744C31.4581 126.723 27.4733 126.01 23.7075 124.613C22.3796 124.122 21.0849 123.544 19.8315 122.885C19.276 122.595 18.7301 122.29 18.1939 121.971C17.4295 121.517 16.6844 121.032 15.9588 120.518C15.6358 120.298 15.3451 120.075 15.0447 119.846C14.1457 119.16 13.2832 118.428 12.4607 117.653C12.17 117.385 11.8857 117.11 11.6047 116.829C7.0142 112.251 3.8415 106.446 2.46705 100.111C2.42829 99.9405 2.39276 99.7693 2.36046 99.597C2.24418 99.0285 2.14405 98.4568 2.06007 97.8754C1.82099 96.239 1.70116 94.5873 1.70154 92.9335C1.70154 92.8043 1.70154 92.6751 1.70154 92.5459C1.77721 84.85 4.49071 77.413 9.38894 71.4767C9.69256 71.1084 10.0059 70.7434 10.3256 70.3881C10.7326 69.9295 11.1557 69.4837 11.5886 69.0509C11.8696 68.7699 12.1538 68.4954 12.4445 68.2273L12.5285 68.1498C12.7707 67.9237 13.013 67.704 13.2617 67.4876C13.8388 66.9816 14.4331 66.4971 15.0447 66.0341C15.3451 65.8048 15.6487 65.5819 15.9588 65.3623C16.2688 65.1426 16.5208 64.9714 16.805 64.7809C17.2604 64.4772 17.7223 64.1833 18.1939 63.9055L18.4232 63.7699C18.8851 63.4986 19.3567 63.2369 19.8315 62.9914C21.0843 62.3321 22.3791 61.7559 23.7075 61.2666C27.4722 59.8657 31.4576 59.1513 35.4744 59.1574C35.8154 59.1571 36.1561 59.1388 36.4951 59.1025C37.3843 59.0061 38.2547 58.7809 39.0791 58.4339C41.3265 57.5043 43.1274 55.7416 44.105 53.5146C44.4876 52.6412 44.7338 51.7141 44.835 50.7659C44.8685 50.4688 44.8858 50.1701 44.8866 49.8712C44.8866 49.8292 44.8866 49.7872 44.8866 49.7452V43.0236C44.887 41.4705 45.1122 39.9256 45.5552 38.437C45.5972 38.2981 45.6392 38.1592 45.6844 38.0235C46.662 35.0225 48.4994 32.3746 50.9685 30.4085C53.4376 28.4424 56.4297 27.2447 59.5734 26.964C59.8964 26.935 60.2194 26.9156 60.5424 26.9059H61.0237H155.663C156.021 26.9059 156.373 26.9059 156.725 26.9414C157.601 26.9954 158.471 27.1229 159.326 27.3226C162.142 27.979 164.729 29.3814 166.816 31.3827C166.903 31.4634 166.987 31.5474 167.071 31.6314C169.968 34.5223 171.654 38.4095 171.784 42.5003V43.0397C171.784 43.0397 171.784 43.3627 171.784 43.4984C171.805 44.2565 171.881 45.0121 172.01 45.7594C172.036 45.9177 172.068 46.0824 172.097 46.2342C172.158 46.5346 172.229 46.835 172.304 47.1289C172.552 48.0737 172.886 48.9937 173.302 49.8776C173.444 50.1813 173.596 50.4817 173.754 50.7724C173.828 50.9112 173.906 51.0469 173.987 51.1826C174.47 52.0107 175.028 52.7934 175.653 53.5211C176.114 54.0601 176.61 54.5673 177.139 55.0392C177.375 55.2524 177.617 55.4559 177.863 55.6561C178.763 56.3697 179.738 56.9848 180.77 57.4908C180.973 57.5941 181.18 57.691 181.39 57.7847C183.448 58.6977 185.675 59.1677 187.927 59.1639H235.13C236.057 59.1639 236.971 59.2123 237.876 59.3028C241.141 59.6351 244.316 60.5669 247.243 62.0515C249.288 63.086 251.193 64.3765 252.912 65.892C253.067 66.0309 253.218 66.1665 253.37 66.3086C253.522 66.4508 253.625 66.5444 253.748 66.6672C254.029 66.9353 254.3 67.2066 254.559 67.4876C254.662 67.5877 254.756 67.6911 254.85 67.7944C254.863 67.8026 254.874 67.8136 254.882 67.8268C254.982 67.9333 255.079 68.0399 255.169 68.1498C255.26 68.2596 255.402 68.4081 255.512 68.5406C255.673 68.7247 255.835 68.912 255.983 69.1026C256.1 69.2415 256.213 69.3836 256.306 69.529C256.4 69.6743 256.523 69.8067 256.629 69.9489C256.736 70.091 256.849 70.2396 256.952 70.3881C257 70.4506 257.045 70.512 257.088 70.5723C257.298 70.8694 257.501 71.1698 257.698 71.4767C257.828 71.6801 257.957 71.8836 258.083 72.0904C258.302 72.4521 258.512 72.8203 258.729 73.1918C259.019 73.7323 259.293 74.2814 259.549 74.8391C259.78 75.3365 259.995 75.8425 260.195 76.3572C260.543 77.255 260.839 78.1716 261.083 79.1027C261.219 79.6033 261.339 80.1104 261.442 80.6208C261.628 81.529 261.765 82.4465 261.852 83.3695C261.939 84.2443 261.982 85.1229 261.981 86.002V108.066C261.979 110.378 262.432 112.667 263.315 114.804C264.198 116.94 265.493 118.882 267.127 120.517C268.76 122.153 270.7 123.45 272.836 124.335C274.971 125.22 277.26 125.676 279.572 125.676H306.423C309.072 125.677 311.679 126.344 314.004 127.614C315.134 128.231 316.186 128.981 317.137 129.849C317.315 130.011 317.489 130.172 317.657 130.347C318.051 130.742 318.426 131.157 318.778 131.59C321.064 134.419 322.311 137.945 322.311 141.582C322.311 145.219 321.064 148.746 318.778 151.574C318.426 152.008 318.051 152.423 317.657 152.818C315.186 155.297 311.964 156.887 308.493 157.34C307.807 157.431 307.115 157.476 306.423 157.475C305.473 157.476 304.528 157.611 303.616 157.876C302.701 158.145 301.831 158.547 301.032 159.068C300.783 159.226 300.544 159.391 300.312 159.575C299.113 160.507 298.143 161.702 297.476 163.067C296.809 164.431 296.463 165.931 296.465 167.45V199.339C296.473 204.081 294.828 208.677 291.814 212.337C291.389 212.857 290.939 213.355 290.464 213.829C289.529 214.765 288.504 215.607 287.405 216.342C287.182 216.497 286.956 216.643 286.726 216.785C286.403 216.985 286.08 217.175 285.735 217.356L285.263 217.605C285.224 217.628 285.183 217.649 285.141 217.666C284.982 217.747 284.818 217.825 284.662 217.899C284.645 217.912 284.625 217.92 284.604 217.925C284.427 218.009 284.249 218.09 284.071 218.164C283.894 218.238 283.69 218.325 283.5 218.4C282.905 218.639 282.298 218.847 281.681 219.023C280.993 219.223 280.294 219.387 279.588 219.514C278.728 219.665 277.86 219.762 276.988 219.805C276.665 219.805 276.313 219.831 275.974 219.831C272.541 219.829 269.229 221.091 266.667 223.375C264.105 225.66 262.474 228.807 262.085 232.218C262.024 232.743 261.993 233.271 261.994 233.8C262.001 237.497 263.473 241.041 266.088 243.654C268.703 246.267 272.248 247.737 275.945 247.741H298.077C299.056 247.74 300.034 247.808 301.003 247.944C301.875 248.063 302.738 248.238 303.587 248.468C303.874 248.545 304.159 248.629 304.443 248.716C307.717 249.745 310.692 251.552 313.116 253.981Z" fill="white"/>
<path d="M15.0349 66.0341V119.833C14.1359 119.148 13.2734 118.415 12.4509 117.64V68.2208L12.5349 68.1433C12.7772 67.9172 13.0194 67.6976 13.2681 67.4812C13.8452 66.9794 14.4341 66.4971 15.0349 66.0341Z" fill="white"/>
<path d="M12.451 260.128C13.1425 258.617 14.0098 257.192 15.035 255.884V282.166C14.1238 281.013 13.3367 279.767 12.6868 278.449C12.5995 278.274 12.5156 278.1 12.4348 277.922L12.451 260.128Z" fill="white"/>
<path d="M39.0952 58.434V126.706H36.5112V59.109C37.4008 59.0106 38.2712 58.7832 39.0952 58.434Z" fill="white"/>
<path d="M38.937 159.562C38.9855 159.533 39.0339 159.504 39.0856 159.478V215.541C38.192 215.031 37.3306 214.477 36.5016 213.881V161.135C37.2897 160.571 38.1015 160.047 38.937 159.562Z" fill="white"/>
<path d="M36.4951 247.751H39.0953V290.293H36.4951V247.751Z" fill="white"/>
<path d="M63.1426 26.8898V126.697H60.5425V26.8898H61.0238H63.1426Z" fill="white"/>
<path d="M60.5425 155.198H63.1426V220.286C62.2919 220.057 61.4212 219.91 60.5425 219.847V155.198Z" fill="white"/>
<path d="M60.5425 247.712C61.4213 247.649 62.292 247.502 63.1426 247.273V290.293H60.5425V247.712Z" fill="white"/>
<path d="M87.1867 26.8898V129.336C86.3755 128.755 85.5036 128.265 84.5865 127.872V26.8898H87.1867Z" fill="white"/>
<path d="M84.5865 154.032C85.5023 153.639 86.3739 153.149 87.1867 152.572V290.293H84.5865V154.032Z" fill="white"/>
<path d="M108.634 26.8898H111.234V290.293H108.634V26.8898Z" fill="white"/>
<path d="M132.681 26.8898H135.281V290.293H132.681V26.8898Z" fill="white"/>
<path d="M159.325 27.3064V290.293H156.725V26.9253C157.601 26.9793 158.471 27.1068 159.325 27.3064Z" fill="white"/>
<path d="M183.373 58.505V290.293H180.789V57.494C180.992 57.5974 181.199 57.6943 181.409 57.7879C182.047 58.0698 182.703 58.3093 183.373 58.505Z" fill="white"/>
<path d="M204.82 59.1575H207.42V290.293H204.82V59.1575Z" fill="white"/>
<path d="M228.864 59.1575H231.464V290.293H228.864V59.1575Z" fill="white"/>
<path d="M255.512 68.5406V290.293H252.928V65.892C253.083 66.0309 253.235 66.1666 253.386 66.3087C253.538 66.4508 253.642 66.5445 253.764 66.6672C254.045 66.9353 254.317 67.2066 254.575 67.4876C254.678 67.5878 254.772 67.6911 254.866 67.7945C254.879 67.8026 254.89 67.8137 254.898 67.8268C254.998 67.9334 255.095 68.04 255.186 68.1498C255.276 68.2596 255.402 68.4082 255.512 68.5406Z" fill="white"/>
<path d="M279.1 125.207V219.025C278.24 219.177 277.372 219.274 276.5 219.316V125C277.36 125.133 278.23 125.202 279.1 125.207Z" fill="white"/>
<path d="M276.959 247.751H279.559V290.293H276.959V247.751Z" fill="white"/>
<path d="M303.603 125.676V157.857C302.688 158.126 301.818 158.528 301.019 159.048V125.676H303.603Z" fill="white"/>
<path d="M303.603 248.478V289.566C302.754 289.798 301.891 289.973 301.019 290.093V247.954C301.891 248.073 302.754 248.247 303.603 248.478Z" fill="white"/>
<path d="M28.6785 296.11H46.915C48.4849 296.11 49.7574 294.838 49.7574 293.268V293.265C49.7574 291.695 48.4849 290.422 46.915 290.422H28.6785C27.1087 290.422 25.8361 291.695 25.8361 293.265V293.268C25.8361 294.838 27.1087 296.11 28.6785 296.11Z" fill="#3EA8D0"/>
<path d="M54.9125 296.11H310.838C312.408 296.11 313.681 294.838 313.681 293.268V293.265C313.681 291.695 312.408 290.422 310.838 290.422H54.9125C53.3427 290.422 52.0702 291.695 52.0702 293.265V293.268C52.0702 294.838 53.3427 296.11 54.9125 296.11Z" fill="#3EA8D0"/>
<path d="M69.0599 44.9551H83.9502C84.1458 44.9551 84.3394 44.9937 84.5201 45.0685C84.7007 45.1433 84.8649 45.253 85.0031 45.3913C85.1414 45.5295 85.2511 45.6937 85.3259 45.8743C85.4008 46.055 85.4393 46.2486 85.4393 46.4442V82.1227H69.0599V44.9551Z" fill="#3EA8D0"/>
<path d="M68.007 44.9551H82.8973V82.1227H66.505V46.4442C66.505 46.2486 66.5435 46.055 66.6183 45.8743C66.6932 45.6937 66.8029 45.5295 66.9411 45.3913C67.0794 45.253 67.2435 45.1433 67.4242 45.0685C67.6049 44.9937 67.7985 44.9551 67.994 44.9551H68.007Z" fill="#5BBEE5"/>
<path d="M74.4703 60.3655C76.643 60.3655 78.4044 58.6041 78.4044 56.4313C78.4044 54.2586 76.643 52.4972 74.4703 52.4972C72.2975 52.4972 70.5361 54.2586 70.5361 56.4313C70.5361 58.6041 72.2975 60.3655 74.4703 60.3655Z" fill="#3EA8D0"/>
<path d="M74.4703 58.2175C75.4568 58.2175 76.2565 57.4178 76.2565 56.4313C76.2565 55.4449 75.4568 54.6451 74.4703 54.6451C73.4838 54.6451 72.6841 55.4449 72.6841 56.4313C72.6841 57.4178 73.4838 58.2175 74.4703 58.2175Z" fill="#F3F4FE"/>
<path d="M74.4702 81.0988C78.0023 81.0988 80.8656 78.2355 80.8656 74.7034C80.8656 71.1714 78.0023 68.308 74.4702 68.308C70.9381 68.308 68.0748 71.1714 68.0748 74.7034C68.0748 78.2355 70.9381 81.0988 74.4702 81.0988Z" fill="#3EA8D0"/>
<path d="M74.4702 77.604C76.0722 77.604 77.3708 76.3054 77.3708 74.7035C77.3708 73.1015 76.0722 71.8029 74.4702 71.8029C72.8683 71.8029 71.5697 73.1015 71.5697 74.7035C71.5697 76.3054 72.8683 77.604 74.4702 77.604Z" fill="#F3F4FE"/>
<path d="M101.16 44.9551H116.05C116.246 44.9551 116.439 44.9937 116.62 45.0685C116.8 45.1433 116.965 45.253 117.103 45.3913C117.241 45.5295 117.351 45.6937 117.426 45.8743C117.5 46.055 117.539 46.2486 117.539 46.4442V82.1227H101.16V44.9551Z" fill="#3EA8D0"/>
<path d="M100.094 44.9551H114.984V82.1227H98.6047V46.4442C98.6047 46.2486 98.6432 46.055 98.7181 45.8743C98.7929 45.6937 98.9026 45.5295 99.0409 45.3913C99.1791 45.253 99.3433 45.1433 99.5239 45.0685C99.7046 44.9937 99.8982 44.9551 100.094 44.9551Z" fill="#5BBEE5"/>
<path d="M106.57 60.3655C108.743 60.3655 110.504 58.6041 110.504 56.4313C110.504 54.2586 108.743 52.4972 106.57 52.4972C104.397 52.4972 102.636 54.2586 102.636 56.4313C102.636 58.6041 104.397 60.3655 106.57 60.3655Z" fill="#3EA8D0"/>
<path d="M106.57 58.2175C107.556 58.2175 108.356 57.4178 108.356 56.4313C108.356 55.4449 107.556 54.6451 106.57 54.6451C105.584 54.6451 104.784 55.4449 104.784 56.4313C104.784 57.4178 105.584 58.2175 106.57 58.2175Z" fill="#F8FDFF"/>
<path d="M106.57 81.0988C110.102 81.0988 112.965 78.2355 112.965 74.7034C112.965 71.1714 110.102 68.308 106.57 68.308C103.038 68.308 100.175 71.1714 100.175 74.7034C100.175 78.2355 103.038 81.0988 106.57 81.0988Z" fill="#3EA8D0"/>
<path d="M106.57 77.604C108.172 77.604 109.471 76.3054 109.471 74.7035C109.471 73.1015 108.172 71.8029 106.57 71.8029C104.968 71.8029 103.669 73.1015 103.669 74.7035C103.669 76.3054 104.968 77.604 106.57 77.604Z" fill="#F8FDFF"/>
<path d="M43.5074 89.5711H140.256L133.886 82.1227H49.8802L43.5074 89.5711Z" fill="#5BBEE5" fill-opacity="0.6"/>
<path d="M122.135 89.5711V99.5712L115.346 104.348V89.5711H122.135Z" fill="#5BBEE5" fill-opacity="0.6"/>
<path d="M70.0678 89.5711V104.348L63.2783 99.5712V89.5711H70.0678Z" fill="#5BBEE5" fill-opacity="0.6"/>
<path d="M63.2783 89.5711H70.0678V92.6622H63.2783V89.5711Z" fill="#3EA8D0"/>
<path d="M115.346 89.5711H122.135V92.6622H115.346V89.5711Z" fill="#3EA8D0"/>
<path d="M210.437 88.0659H247.295V129.455H210.437V88.0659Z" fill="#5BBEE5"/>
<path d="M213.664 91.6868H244.071V125.831H213.664V91.6868Z" fill="#F3F4FE"/>
<path d="M222.679 102.84L230.835 117.889L216.306 118.854L222.679 102.84Z" fill="#5BBEE5"/>
<path d="M240.492 95.6403L234.807 105.934L228.864 97.8852L240.492 95.6403Z" fill="#5BBEE5"/>
<path d="M239.601 110.847L238.409 117.953L233.338 114.51L239.601 110.847Z" fill="#5BBEE5"/>
<path d="M170.488 93.3954C175.248 93.3954 179.106 89.5372 179.106 84.7778C179.106 80.0184 175.248 76.1602 170.488 76.1602C165.729 76.1602 161.871 80.0184 161.871 84.7778C161.871 89.5372 165.729 93.3954 170.488 93.3954Z" fill="#332D52"/>
<path d="M171.54 133.761C176.059 130.29 176.909 123.814 173.439 119.295C169.969 114.776 163.492 113.925 158.973 117.396L132.773 137.514C128.254 140.984 127.404 147.461 130.874 151.98C134.344 156.499 140.82 157.349 145.34 153.879L171.54 133.761Z" fill="#FAEEDE"/>
<path d="M139.09 156.012C145.205 156.012 150.162 151.055 150.162 144.94C150.162 138.825 145.205 133.867 139.09 133.867C132.975 133.867 128.017 138.825 128.017 144.94C128.017 151.055 132.975 156.012 139.09 156.012Z" fill="#F2E6D7"/>
<path d="M116.966 104.489L116.963 104.49C112.801 106.683 111.206 111.835 113.399 115.996L130.478 148.403C132.671 152.564 137.822 154.16 141.984 151.967L141.987 151.965C146.148 149.772 147.744 144.621 145.551 140.459L128.472 108.053C126.279 103.891 121.127 102.295 116.966 104.489Z" fill="#EF948C"/>
<path d="M116.951 118.742C121.227 120.597 126.197 118.636 128.052 114.361C129.908 110.086 127.945 105.116 123.669 103.26L116.899 100.322C112.623 98.4659 107.653 100.427 105.797 104.702C103.942 108.978 105.904 113.948 110.18 115.803L116.951 118.742Z" fill="#EF948C"/>
<path d="M119.742 108.208C121.289 108.879 123.086 108.17 123.757 106.623C124.428 105.077 123.719 103.279 122.173 102.608L106.495 95.8042C104.949 95.1331 103.151 95.8427 102.48 97.3891C101.809 98.9355 102.519 100.733 104.065 101.404L119.742 108.208Z" fill="#EF948C"/>
<path d="M120.845 107.66C121.778 109.064 123.672 109.446 125.077 108.514C126.481 107.581 126.863 105.687 125.931 104.282L120.671 96.3639C119.739 94.9596 117.844 94.5773 116.44 95.5099C115.036 96.4426 114.653 98.337 115.586 99.7413L120.845 107.66Z" fill="#EA8681"/>
<path d="M121.557 113.99C124.879 113.99 127.571 111.297 127.571 107.976C127.571 104.654 124.879 101.961 121.557 101.961C118.236 101.961 115.543 104.654 115.543 107.976C115.543 111.297 118.236 113.99 121.557 113.99Z" fill="#EA8681"/>
<path d="M171.54 133.761C176.059 130.29 176.909 123.814 173.439 119.295C169.969 114.776 163.492 113.925 158.973 117.396L132.773 137.514C128.254 140.984 127.404 147.461 130.874 151.98C134.344 156.499 140.82 157.349 145.34 153.879L171.54 133.761Z" fill="#F2E6D7"/>
<path d="M139.09 156.012C145.205 156.012 150.162 151.055 150.162 144.94C150.162 138.825 145.205 133.867 139.09 133.867C132.975 133.867 128.017 138.825 128.017 144.94C128.017 151.055 132.975 156.012 139.09 156.012Z" fill="#FAEEDE"/>
<path d="M116.966 104.489L116.963 104.49C112.801 106.683 111.206 111.835 113.399 115.996L130.478 148.403C132.671 152.564 137.822 154.16 141.984 151.967L141.987 151.965C146.148 149.772 147.744 144.621 145.551 140.459L128.472 108.053C126.279 103.891 121.127 102.295 116.966 104.489Z" fill="#EF948C"/>
<path d="M116.951 118.742C121.226 120.597 126.197 118.636 128.052 114.361C129.908 110.086 127.945 105.116 123.669 103.26L116.899 100.322C112.623 98.466 107.652 100.427 105.797 104.703C103.942 108.978 105.904 113.948 110.18 115.803L116.951 118.742Z" fill="#EF948C"/>
<path d="M105.798 104.694C106.1 103.999 106.494 103.347 106.967 102.756C106.364 104.737 106.512 106.87 107.382 108.749C108.253 110.628 109.785 112.12 111.686 112.94L112.51 113.295L115.717 114.688L118.056 119.122L131.984 145.553C132.643 146.805 133.602 147.872 134.777 148.66C135.951 149.448 137.303 149.931 138.71 150.066C140.118 150.201 141.537 149.984 142.84 149.434C144.142 148.885 145.288 148.019 146.173 146.917C145.681 148.532 144.721 149.965 143.414 151.034C142.106 152.102 140.511 152.758 138.83 152.919C137.149 153.079 135.458 152.736 133.972 151.934C132.487 151.131 131.273 149.906 130.485 148.412L114.222 117.546L110.188 115.795C109.169 115.356 108.247 114.72 107.475 113.924C106.703 113.128 106.096 112.187 105.688 111.156C105.28 110.125 105.08 109.023 105.099 107.914C105.118 106.805 105.355 105.711 105.798 104.694Z" fill="#EA8681"/>
<path d="M119.742 108.208C121.289 108.879 123.086 108.17 123.757 106.623C124.428 105.077 123.719 103.279 122.173 102.608L106.495 95.8042C104.949 95.1331 103.151 95.8427 102.48 97.3891C101.809 98.9355 102.519 100.733 104.065 101.404L119.742 108.208Z" fill="#EF948C"/>
<path d="M120.845 107.66C121.778 109.064 123.672 109.446 125.077 108.514C126.481 107.581 126.863 105.687 125.931 104.282L120.671 96.3639C119.739 94.9596 117.844 94.5773 116.44 95.5099C115.036 96.4426 114.653 98.337 115.586 99.7413L120.845 107.66Z" fill="#EF948C"/>
<path d="M121.557 113.99C124.879 113.99 127.571 111.297 127.571 107.976C127.571 104.654 124.879 101.961 121.557 101.961C118.236 101.961 115.543 104.654 115.543 107.976C115.543 111.297 118.236 113.99 121.557 113.99Z" fill="#EF948C"/>
<path d="M171.067 144.5C179.997 144.5 187.236 137.261 187.236 128.331C187.236 119.401 179.997 112.162 171.067 112.162C162.136 112.162 154.897 119.401 154.897 128.331C154.897 137.261 162.136 144.5 171.067 144.5Z" fill="#F2E6D7"/>
<path d="M164.841 133.47L166.01 184.988C166.222 194.333 173.97 201.737 183.315 201.525L198.231 201.186C207.576 200.974 214.98 193.227 214.768 183.881L213.599 132.363C213.386 123.018 205.639 115.614 196.294 115.826L181.378 116.165C172.033 116.377 164.629 124.125 164.841 133.47Z" fill="#FAEEDE"/>
<path d="M157.992 127.618C157.896 122.829 159.707 118.199 163.025 114.745C166.344 111.291 170.898 109.297 175.687 109.201L202.861 108.658C207.649 108.562 212.28 110.372 215.734 113.691C219.188 117.009 221.182 121.564 221.278 126.352C221.356 130.264 220.663 134.154 219.238 137.798C217.813 141.442 215.684 144.77 212.974 147.592C210.263 150.413 207.022 152.673 203.438 154.243C199.854 155.812 195.995 156.66 192.083 156.738L188.375 156.813C180.475 156.97 172.836 153.982 167.138 148.507C161.44 143.032 158.15 135.518 157.992 127.618Z" fill="#FAEEDE"/>
<path d="M191.577 156.419H191.606C199.503 156.24 207.006 152.931 212.464 147.221C217.922 141.511 220.888 133.867 220.712 125.97C220.603 121.183 218.598 116.634 215.136 113.326C211.674 110.017 207.04 108.219 202.252 108.328L175.085 108.945C173.843 108.972 172.608 109.128 171.399 109.41L197.478 108.815H197.898C202.612 108.818 207.139 110.663 210.51 113.958C213.881 117.253 215.831 121.735 215.941 126.448C216.101 133.523 213.737 140.424 209.273 145.916C204.809 151.407 198.536 155.131 191.577 156.419Z" fill="#FFF7EE"/>
<path d="M179.555 95.7469L179.904 111.135C179.953 113.439 180.903 115.632 182.552 117.243C184.2 118.855 186.414 119.755 188.719 119.752H188.919C190.077 119.726 191.218 119.472 192.278 119.004C193.337 118.536 194.294 117.864 195.094 117.026C195.894 116.188 196.52 115.201 196.938 114.121C197.356 113.041 197.557 111.889 197.53 110.731L197.414 105.46L197.181 95.3464C197.13 93.0429 196.178 90.8512 194.531 89.2405C192.883 87.6298 190.67 86.7282 188.366 86.7288H188.163C185.826 86.7847 183.607 87.7658 181.993 89.4567C180.379 91.1476 179.502 93.41 179.555 95.7469Z" fill="#EF948C"/>
<path d="M123.646 188.358L123.677 189.711C123.841 196.981 129.868 202.74 137.137 202.575L201.992 201.103C209.261 200.938 215.02 194.912 214.855 187.642L214.825 186.289C214.66 179.02 208.633 173.261 201.364 173.426L136.509 174.898C129.24 175.063 123.481 181.089 123.646 188.358Z" fill="#332D52"/>
<path d="M187.236 188.277V270.929H214.924V188.277C214.924 184.605 213.465 181.084 210.869 178.488C208.273 175.891 204.751 174.433 201.08 174.433C197.408 174.433 193.887 175.891 191.291 178.488C188.694 181.084 187.236 184.605 187.236 188.277Z" fill="#666DA2"/>
<path d="M187.236 188.277V270.929H194.436V200.854C194.437 198.452 195.063 196.091 196.253 194.003C197.442 191.916 199.155 190.174 201.222 188.949C203.289 187.723 205.639 187.057 208.041 187.015C210.443 186.973 212.815 187.557 214.924 188.709V188.277C214.924 184.605 213.465 181.084 210.869 178.488C208.273 175.891 204.751 174.433 201.08 174.433C197.408 174.433 193.887 175.891 191.291 178.488C188.694 181.084 187.236 184.605 187.236 188.277Z" fill="#555A8B"/>
<path d="M187.236 259.023V270.929H214.924V263.371L187.236 259.023Z" fill="#141334"/>
<path d="M95.6913 261.656L120.372 271.549L123.159 264.324L150.34 193.91C150.994 192.213 151.308 190.404 151.263 188.586C151.219 186.768 150.817 184.977 150.08 183.314C149.343 181.652 148.285 180.151 146.968 178.897C145.651 177.643 144.1 176.66 142.404 176.006C140.707 175.351 138.898 175.038 137.08 175.082C135.262 175.127 133.471 175.529 131.808 176.266C130.145 177.003 128.644 178.06 127.39 179.377C126.136 180.694 125.154 182.245 124.5 183.942L99.0311 249.957L95.701 258.571L95.6913 261.656Z" fill="#332D52"/>
<path d="M112.376 282.688L93.0038 275.209L97.1009 264.596L116.473 272.075L112.376 282.688Z" fill="#EA8681"/>
<path d="M211.464 283.72H190.699V273.087H211.464V283.72Z" fill="#EF948C"/>
<path d="M179.555 95.7469L179.904 111.135C179.921 111.942 180.049 112.743 180.285 113.515H180.931C184.111 113.517 187.25 112.79 190.105 111.39C192.961 109.99 195.457 107.955 197.404 105.44L197.172 95.327C197.12 93.0235 196.169 90.8318 194.521 89.2211C192.874 87.6104 190.661 86.7088 188.357 86.7094H188.163C187.004 86.737 185.862 86.9928 184.802 87.462C183.743 87.9313 182.785 88.6048 181.986 89.4441C181.187 90.2835 180.56 91.2721 180.143 92.3536C179.726 93.4351 179.526 94.5881 179.555 95.7469Z" fill="#EA8681"/>
<path d="M164.261 88.5375C164.261 93.8689 166.303 98.9977 169.968 102.87C173.632 106.742 178.641 109.064 183.964 109.358C184.335 109.378 184.707 109.387 185.085 109.387C187.844 109.422 190.583 108.908 193.143 107.875C195.702 106.843 198.032 105.313 199.995 103.374C201.959 101.434 203.518 99.1243 204.582 96.5779C205.646 94.0314 206.194 91.299 206.194 88.5392C206.194 85.7793 205.646 83.0469 204.582 80.5004C203.518 77.954 201.959 75.6441 199.995 73.7048C198.032 71.7654 195.702 70.2353 193.143 69.203C190.583 68.1707 187.844 67.6568 185.085 67.6911C184.707 67.6911 184.335 67.6911 183.964 67.7202C178.641 68.0134 173.633 70.3344 169.968 74.2062C166.303 78.078 164.261 83.2065 164.261 88.5375Z" fill="#EF948C"/>
<path d="M176.506 94.1642C176.507 94.7754 176.628 95.3805 176.863 95.9448C177.098 96.509 177.442 97.0213 177.875 97.4523C177.982 97.5589 178.095 97.6591 178.198 97.7527C179.032 98.4394 180.08 98.813 181.16 98.8089H181.351C182.518 98.8039 183.641 98.361 184.498 97.568C185.354 96.7749 185.882 95.6894 185.976 94.526C185.976 94.3968 185.976 94.2676 185.976 94.1384C185.977 94.0185 185.954 93.8996 185.909 93.7887C185.864 93.6778 185.796 93.577 185.711 93.4924C185.539 93.323 185.307 93.2289 185.065 93.2307L177.372 93.2501C177.137 93.2594 176.914 93.3601 176.753 93.5309C176.591 93.7017 176.502 93.929 176.506 94.1642Z" fill="#962F4A"/>
<path d="M181.264 98.0919C181.264 98.3326 181.288 98.5727 181.335 98.8089H181.361C182.528 98.8053 183.652 98.363 184.509 97.5697C185.365 96.7763 185.893 95.6899 185.986 94.5259C185.651 94.428 185.304 94.379 184.956 94.3806C184.469 94.3819 183.988 94.4789 183.54 94.6661C183.091 94.8533 182.684 95.127 182.341 95.4716C181.998 95.8162 181.727 96.225 181.542 96.6746C181.357 97.1242 181.262 97.6058 181.264 98.0919Z" fill="#E1617F"/>
<path d="M177.575 93.2598C177.614 94.1739 179.025 94.9006 180.757 94.8974C182.488 94.8942 183.893 94.1577 183.925 93.2437L177.575 93.2598Z" fill="white"/>
<path d="M164.261 88.5376C164.261 93.8689 166.303 98.9978 169.968 102.87C173.632 106.742 178.641 109.064 183.964 109.358C184.539 109.326 185.111 109.274 185.676 109.193C180.684 108.508 176.11 106.038 172.798 102.241C169.487 98.4439 167.662 93.5759 167.662 88.5376C167.662 83.4992 169.487 78.6313 172.798 74.834C176.11 71.0367 180.684 68.5671 185.676 67.8817C185.111 67.8042 184.539 67.7493 183.964 67.7202C178.641 68.0134 173.633 70.3344 169.968 74.2062C166.303 78.0781 164.261 83.2065 164.261 88.5376Z" fill="#EA8681"/>
<path d="M202.31 125.621V125.838C202.514 132.724 207.107 138.183 212.714 138.267H213.076C218.909 138.115 223.541 132.201 223.412 125.062C223.347 121.109 222.508 117.911 220.182 115.602C218.791 114.319 217.138 113.355 215.337 112.775C213.866 112.34 212.306 112.3 210.815 112.659C205.892 113.848 202.207 119.245 202.31 125.621Z" fill="#FAEEDE"/>
<path d="M201.894 125.353V125.573C202.071 130.544 204.52 134.794 207.995 136.878C206.183 134.445 205.167 131.512 205.088 128.48C205.088 128.405 205.088 128.334 205.088 128.26C204.949 121.781 208.719 116.309 213.809 115.133C214.426 114.987 215.056 114.907 215.689 114.894C216.636 114.875 217.581 115.003 218.49 115.272C219.283 115.508 220.043 115.845 220.751 116.274C219.394 114.424 217.483 113.055 215.295 112.365C213.774 111.911 212.16 111.863 210.615 112.226C205.521 113.412 201.752 118.864 201.894 125.353Z" fill="#F2E6D7"/>
<path d="M224.939 121.873C222.537 116.706 216.402 114.464 211.235 116.866C206.068 119.267 203.826 125.403 206.228 130.57L220.152 160.525C222.553 165.692 228.689 167.933 233.856 165.532C239.023 163.13 241.264 156.995 238.863 151.828L224.939 121.873Z" fill="#FAEEDE"/>
<path d="M228.771 167.065C234.886 167.065 239.843 162.108 239.843 155.993C239.843 149.878 234.886 144.92 228.771 144.92C222.655 144.92 217.698 149.878 217.698 155.993C217.698 162.108 222.655 167.065 228.771 167.065Z" fill="#F2E6D7"/>
<path d="M224.939 121.873C222.537 116.706 216.402 114.464 211.235 116.866C206.068 119.267 203.826 125.403 206.228 130.57L220.152 160.525C222.553 165.692 228.689 167.933 233.856 165.532C239.023 163.13 241.264 156.995 238.863 151.828L224.939 121.873Z" fill="#FAEEDE"/>
<path d="M205.834 122.856C206.826 121.291 208.221 120.022 209.872 119.182C211.523 118.342 213.37 117.962 215.219 118.082C217.068 118.203 218.85 118.819 220.379 119.866C221.907 120.912 223.126 122.352 223.906 124.032L237.827 153.987C238.956 156.409 239.1 159.175 238.228 161.7C239.277 160.047 239.837 158.131 239.843 156.174C239.842 154.674 239.511 153.193 238.874 151.836L224.953 121.881C224.088 120.015 222.685 118.45 220.925 117.388C219.165 116.325 217.127 115.813 215.073 115.917C213.019 116.021 211.044 116.737 209.4 117.972C207.756 119.208 206.519 120.906 205.847 122.85L205.834 122.856Z" fill="#FFF7EE"/>
<path d="M228.771 167.065C234.886 167.065 239.843 162.108 239.843 155.993C239.843 149.878 234.886 144.92 228.771 144.92C222.655 144.92 217.698 149.878 217.698 155.993C217.698 162.108 222.655 167.065 228.771 167.065Z" fill="#F2E6D7"/>
<path d="M168.961 83.7571H200.072C205.588 83.7571 210.059 79.2857 210.059 73.77C210.059 68.2542 205.588 63.7828 200.072 63.7828H168.961C163.445 63.7828 158.974 68.2542 158.974 73.77C158.974 79.2857 163.445 83.7571 168.961 83.7571Z" fill="#332D52"/>
<path d="M204.229 93.3954C208.988 93.3954 212.847 89.5372 212.847 84.7778C212.847 80.0184 208.988 76.1602 204.229 76.1602C199.47 76.1602 195.611 80.0184 195.611 84.7778C195.611 89.5372 199.47 93.3954 204.229 93.3954Z" fill="#332D52"/>
<path d="M205.77 93.3954C209.678 93.3954 212.847 90.227 212.847 86.3185C212.847 82.41 209.678 79.2416 205.77 79.2416C201.861 79.2416 198.693 82.41 198.693 86.3185C198.693 90.227 201.861 93.3954 205.77 93.3954Z" fill="#49466B"/>
<path d="M205.938 95.4497C209.753 95.4497 212.847 92.3565 212.847 88.5407C212.847 84.725 209.753 81.6318 205.938 81.6318C202.122 81.6318 199.029 84.725 199.029 88.5407C199.029 92.3565 202.122 95.4497 205.938 95.4497Z" fill="#EF948C"/>
<path d="M205.395 90.692V86.3831C205.395 86.2755 205.421 86.1694 205.47 86.0736C205.519 85.9778 205.59 85.8949 205.678 85.8319C205.765 85.7689 205.866 85.7274 205.972 85.711C206.079 85.6945 206.187 85.7035 206.29 85.7371C206.884 85.9276 207.403 86.3019 207.77 86.8061C208.138 87.3103 208.337 87.9183 208.337 88.5424C208.337 89.1665 208.138 89.7745 207.77 90.2787C207.403 90.7829 206.884 91.1572 206.29 91.3476C206.187 91.3808 206.077 91.3891 205.97 91.3718C205.864 91.3546 205.762 91.3122 205.675 91.2482C205.588 91.1842 205.517 91.1004 205.468 91.0037C205.419 90.9071 205.394 90.8002 205.395 90.692Z" fill="#EA8681"/>
<path d="M170.488 83.9348C177.779 83.9348 183.689 78.0245 183.689 70.7338C183.689 63.4431 177.779 57.5328 170.488 57.5328C163.198 57.5328 157.287 63.4431 157.287 70.7338C157.287 78.0245 163.198 83.9348 170.488 83.9348Z" fill="#332D52"/>
<path d="M158.489 70.737C158.488 72.2993 158.818 73.8442 159.457 75.2696C160.096 76.6951 161.031 77.9688 162.199 79.0066C163.367 80.0444 164.741 80.8227 166.232 81.2903C167.723 81.7578 169.296 81.904 170.847 81.719C168.162 81.3993 165.688 80.1062 163.893 78.0846C162.098 76.0631 161.107 73.4534 161.107 70.7499C161.107 68.0464 162.098 65.4367 163.893 63.4152C165.688 61.3936 168.162 60.1006 170.847 59.7808C169.296 59.5959 167.723 59.742 166.232 60.2095C164.741 60.6771 163.367 61.4555 162.199 62.4933C161.031 63.5311 160.096 64.8047 159.457 66.2302C158.818 67.6556 158.488 69.2005 158.489 70.7628V70.737Z" fill="#49466B"/>
<path d="M180.941 71.832C185.957 71.832 190.023 67.7655 190.023 62.7492C190.023 57.7329 185.957 53.6664 180.941 53.6664C175.924 53.6664 171.858 57.7329 171.858 62.7492C171.858 67.7655 175.924 71.832 180.941 71.832Z" fill="#332D52"/>
<path d="M170.847 86.9064C170.87 87.5407 171.138 88.1415 171.595 88.5821C172.052 89.0227 172.662 89.269 173.297 89.269C173.932 89.269 174.542 89.0227 174.999 88.5821C175.456 88.1415 175.724 87.5407 175.747 86.9064C175.748 86.7148 175.725 86.5239 175.679 86.3379C175.552 86.874 175.247 87.3515 174.815 87.6932C174.383 88.0348 173.848 88.2207 173.297 88.2207C172.746 88.2207 172.211 88.0348 171.779 87.6932C171.346 87.3515 171.042 86.874 170.915 86.3379C170.869 86.5239 170.846 86.7148 170.847 86.9064Z" fill="#332D52"/>
<path d="M184.306 86.9064C184.306 87.5566 184.565 88.1801 185.024 88.6399C185.484 89.0997 186.108 89.3579 186.758 89.3579C187.408 89.3579 188.032 89.0997 188.491 88.6399C188.951 88.1801 189.209 87.5566 189.209 86.9064C189.21 86.7148 189.187 86.5239 189.142 86.3379C189.013 86.8733 188.708 87.3497 188.275 87.6906C187.843 88.0314 187.308 88.2168 186.758 88.2168C186.207 88.2168 185.673 88.0314 185.24 87.6906C184.808 87.3497 184.503 86.8733 184.374 86.3379C184.328 86.5239 184.306 86.7148 184.306 86.9064Z" fill="#332D52"/>
<path d="M187.239 289.001H213.622C213.622 285.502 212.232 282.147 209.758 279.673C207.284 277.199 203.929 275.81 200.43 275.81C196.932 275.81 193.577 277.199 191.103 279.673C188.629 282.147 187.239 285.502 187.239 289.001Z" fill="#332D52"/>
<path d="M187.239 289.001H193.331C193.333 286.129 194.235 283.33 195.91 280.998C197.586 278.666 199.951 276.918 202.672 276C200.779 275.678 198.837 275.772 196.984 276.276C195.13 276.781 193.409 277.683 191.94 278.921C190.471 280.158 189.289 281.701 188.477 283.442C187.665 285.183 187.243 287.08 187.239 289.001Z" fill="#49466B"/>
<path d="M183.586 286.614C183.587 286.872 183.613 287.13 183.664 287.383C183.688 287.506 183.72 287.628 183.757 287.748C183.794 287.866 183.837 287.983 183.886 288.097C184.028 288.436 184.22 288.753 184.455 289.037C184.532 289.13 184.613 289.217 184.7 289.305C184.786 289.39 184.877 289.471 184.972 289.547C185.653 290.109 186.508 290.416 187.391 290.416H215.544C216.292 290.417 217.012 290.126 217.548 289.604C218.085 289.082 218.395 288.37 218.414 287.622C218.433 286.873 218.158 286.147 217.648 285.599C217.138 285.051 216.434 284.724 215.686 284.689L194.581 283.271L187.575 282.806C186.944 282.774 186.316 282.9 185.747 283.174C185.582 283.255 185.422 283.347 185.269 283.449C185.12 283.548 184.976 283.656 184.839 283.772C184.704 283.894 184.577 284.027 184.461 284.169C184.384 284.263 184.31 284.359 184.242 284.46C183.998 284.82 183.818 285.22 183.712 285.642C183.679 285.763 183.653 285.886 183.634 286.01C183.603 286.21 183.586 286.412 183.586 286.614Z" fill="#332D52"/>
<path d="M183.586 286.614C183.587 286.872 183.613 287.13 183.664 287.383C183.687 287.506 183.718 287.628 183.757 287.748C183.792 287.867 183.835 287.983 183.886 288.097C184.028 288.436 184.22 288.753 184.455 289.037C184.532 289.13 184.613 289.217 184.7 289.305C184.786 289.39 184.877 289.471 184.972 289.547C185.653 290.109 186.508 290.416 187.391 290.416H196.419C195.574 290.416 194.754 290.136 194.086 289.619C193.418 289.102 192.942 288.377 192.731 287.559C192.52 286.742 192.588 285.877 192.923 285.102C193.258 284.326 193.841 283.685 194.581 283.277L187.575 282.812C186.944 282.78 186.316 282.907 185.747 283.181C185.417 283.34 185.111 283.545 184.839 283.791C184.704 283.914 184.577 284.047 184.461 284.188C184.383 284.281 184.309 284.378 184.242 284.479C183.998 284.839 183.818 285.239 183.712 285.661C183.679 285.782 183.653 285.905 183.634 286.029C183.604 286.223 183.587 286.418 183.586 286.614Z" fill="#49466B"/>
<path d="M113.462 286.015L92.2643 277.104L95.6237 269.112L113.376 276.575C114.29 276.959 115.014 277.69 115.388 278.608C115.763 279.526 115.757 280.554 115.373 281.468L113.462 286.015Z" fill="#49466B"/>
<path d="M76.2467 273.216L100.569 283.439C101.924 280.214 101.943 276.582 100.621 273.343C99.2991 270.104 96.7444 267.522 93.5191 266.167C90.2938 264.811 86.6621 264.792 83.4229 266.114C80.1837 267.436 77.6024 269.991 76.2467 273.216Z" fill="#332D52"/>
<path d="M76.2467 273.216L83.0814 276.087C84.1862 273.458 86.1135 271.257 88.5744 269.815C91.0354 268.374 93.8974 267.768 96.7314 268.09C95.1412 266.798 93.2718 265.894 91.2715 265.449C89.2712 265.005 87.1948 265.032 85.207 265.53C83.2192 266.027 81.3746 266.981 79.8193 268.315C78.264 269.649 77.0409 271.327 76.2467 273.216Z" fill="#49466B"/>
<path d="M115.071 284.857L80.1325 268.135C79.6678 267.913 79.163 267.787 78.6484 267.766C78.1339 267.745 77.6204 267.828 77.139 268.011C76.6576 268.194 76.2184 268.473 75.8479 268.831C75.4775 269.189 75.1835 269.618 74.9838 270.093C74.7899 270.553 74.6886 271.048 74.6857 271.547C74.6829 272.047 74.7785 272.543 74.9672 273.005C75.1558 273.468 75.4339 273.889 75.7853 274.245C76.1368 274.6 76.5548 274.883 77.0155 275.076L112.723 290.086C113.424 290.38 114.213 290.384 114.917 290.097C115.62 289.81 116.181 289.256 116.476 288.555C116.762 287.876 116.775 287.114 116.514 286.425C116.252 285.737 115.736 285.175 115.071 284.857Z" fill="#332D52"/>
<path d="M74.9838 270.096C74.5931 271.026 74.5876 272.073 74.9686 273.007C75.3496 273.941 76.0858 274.685 77.0154 275.076L85.3359 278.575C84.5376 278.239 83.8777 277.641 83.4653 276.879C83.0529 276.117 82.9127 275.238 83.0678 274.386C83.2229 273.534 83.6641 272.76 84.3185 272.193C84.9728 271.625 85.8012 271.298 86.6667 271.265L80.1356 268.135C79.6707 267.913 79.1653 267.787 78.6503 267.765C78.1352 267.744 77.6212 267.828 77.1394 268.011C76.6576 268.194 76.2181 268.474 75.8475 268.832C75.477 269.19 75.1831 269.62 74.9838 270.096Z" fill="#49466B"/>
<path d="M228.774 171.574L230.954 177.789L234.788 188.735L270.428 290.432H278.377L251.058 188.735L248.118 177.789L246.448 171.574H228.774Z" fill="#441242"/>
<path d="M230.954 177.789L234.788 188.735H251.058L248.118 177.789H230.954Z" fill="#2F073A"/>
<path d="M114.926 171.574L112.746 177.789L108.912 188.735L73.2719 290.432H65.3229L92.6422 188.735L95.5815 177.789L97.2514 171.574H114.926Z" fill="#441242"/>
<path d="M112.746 177.789L108.912 188.735H92.6422L95.5815 177.789H112.746Z" fill="#2F073A"/>
<path d="M268.755 182.521H79.4218C78.166 182.521 76.9616 182.022 76.0736 181.134C75.1856 180.246 74.6867 179.042 74.6867 177.786V171.578H273.493V177.782C273.494 178.405 273.371 179.021 273.133 179.596C272.895 180.171 272.546 180.694 272.106 181.134C271.666 181.574 271.144 181.923 270.569 182.161C269.993 182.399 269.377 182.521 268.755 182.521Z" fill="#441242"/>
<path d="M55.1516 174.498H293.025C295.423 174.498 297.366 172.554 297.366 170.156C297.366 167.759 295.423 165.815 293.025 165.815H55.1516C52.7541 165.815 50.8105 167.759 50.8105 170.156C50.8105 172.554 52.7541 174.498 55.1516 174.498Z" fill="#9AD7EF"/>
<path d="M50.8104 170.156C50.8113 171.307 51.2689 172.411 52.0829 173.225C52.8968 174.039 54.0005 174.497 55.1515 174.497H293.025C294.176 174.497 295.28 174.04 296.095 173.226C296.909 172.412 297.366 171.308 297.366 170.156C297.367 169.644 297.276 169.135 297.098 168.654C296.791 169.487 296.235 170.205 295.507 170.712C294.779 171.22 293.912 171.491 293.025 171.49H55.1515C54.5814 171.491 54.0168 171.379 53.4901 171.161C52.9635 170.942 52.4853 170.622 52.083 170.218C51.6376 169.777 51.2956 169.243 51.0817 168.654C50.9022 169.135 50.8103 169.644 50.8104 170.156Z" fill="#52B5DC"/>
<path d="M266.29 180.001C267.177 180.001 267.896 179.283 267.896 178.396C267.896 177.509 267.177 176.791 266.29 176.791C265.404 176.791 264.685 177.509 264.685 178.396C264.685 179.283 265.404 180.001 266.29 180.001Z" fill="#D8BA9F"/>
<path d="M265.941 180.46C267.022 180.46 267.899 179.584 267.899 178.503C267.899 177.422 267.022 176.545 265.941 176.545C264.86 176.545 263.984 177.422 263.984 178.503C263.984 179.584 264.86 180.46 265.941 180.46Z" fill="#2F073A"/>
<path d="M266.29 180.001C267.177 180.001 267.896 179.283 267.896 178.396C267.896 177.509 267.177 176.791 266.29 176.791C265.404 176.791 264.685 177.509 264.685 178.396C264.685 179.283 265.404 180.001 266.29 180.001Z" fill="#D8BA9F"/>
<path d="M264.685 178.396C264.685 178.824 264.855 179.235 265.158 179.538C265.461 179.841 265.872 180.011 266.3 180.011H266.468C266.085 179.954 265.736 179.761 265.483 179.468C265.231 179.175 265.092 178.801 265.092 178.414C265.092 178.027 265.231 177.653 265.483 177.36C265.736 177.067 266.085 176.874 266.468 176.817C266.412 176.813 266.356 176.813 266.3 176.817C265.878 176.817 265.472 176.982 265.17 177.277C264.868 177.572 264.694 177.974 264.685 178.396Z" fill="#C89F87"/>
<path d="M266.29 179.265C266.372 179.291 266.457 179.304 266.542 179.304C266.786 179.304 267.019 179.207 267.191 179.035C267.363 178.863 267.46 178.63 267.46 178.386C267.46 178.143 267.363 177.91 267.191 177.738C267.019 177.566 266.786 177.469 266.542 177.469C266.457 177.469 266.372 177.482 266.29 177.508C266.483 177.561 266.653 177.675 266.774 177.834C266.895 177.993 266.961 178.187 266.961 178.386C266.961 178.586 266.895 178.78 266.774 178.939C266.653 179.098 266.483 179.212 266.29 179.265Z" fill="#F5EAE4"/>
<path d="M257.311 180.001C258.197 180.001 258.916 179.283 258.916 178.396C258.916 177.509 258.197 176.791 257.311 176.791C256.424 176.791 255.706 177.509 255.706 178.396C255.706 179.283 256.424 180.001 257.311 180.001Z" fill="#D8BA9F"/>
<path d="M256.962 180.46C258.043 180.46 258.919 179.584 258.919 178.503C258.919 177.422 258.043 176.545 256.962 176.545C255.881 176.545 255.005 177.422 255.005 178.503C255.005 179.584 255.881 180.46 256.962 180.46Z" fill="#2F073A"/>
<path d="M257.311 180.001C258.197 180.001 258.916 179.283 258.916 178.396C258.916 177.509 258.197 176.791 257.311 176.791C256.424 176.791 255.706 177.509 255.706 178.396C255.706 179.283 256.424 180.001 257.311 180.001Z" fill="#D8BA9F"/>
<path d="M255.709 178.396C255.709 178.824 255.879 179.235 256.182 179.538C256.485 179.841 256.895 180.011 257.324 180.011H257.492C257.109 179.954 256.76 179.761 256.507 179.468C256.254 179.175 256.116 178.801 256.116 178.414C256.116 178.027 256.254 177.653 256.507 177.36C256.76 177.067 257.109 176.874 257.492 176.817C257.436 176.813 257.38 176.813 257.324 176.817C256.902 176.817 256.496 176.982 256.194 177.277C255.892 177.572 255.718 177.974 255.709 178.396Z" fill="#C89F87"/>
<path d="M257.311 179.265C257.392 179.291 257.477 179.304 257.563 179.304C257.806 179.304 258.039 179.207 258.211 179.035C258.383 178.863 258.48 178.63 258.48 178.386C258.48 178.143 258.383 177.91 258.211 177.738C258.039 177.566 257.806 177.469 257.563 177.469C257.477 177.469 257.392 177.482 257.311 177.508C257.503 177.561 257.673 177.675 257.794 177.834C257.916 177.993 257.981 178.187 257.981 178.386C257.981 178.586 257.916 178.78 257.794 178.939C257.673 179.098 257.503 179.212 257.311 179.265Z" fill="#F5EAE4"/>
<path d="M82.7519 180.001C83.6385 180.001 84.3572 179.283 84.3572 178.396C84.3572 177.509 83.6385 176.791 82.7519 176.791C81.8653 176.791 81.1466 177.509 81.1466 178.396C81.1466 179.283 81.8653 180.001 82.7519 180.001Z" fill="#D8BA9F"/>
<path d="M83.1008 180.46C84.1818 180.46 85.0582 179.584 85.0582 178.503C85.0582 177.422 84.1818 176.545 83.1008 176.545C82.0198 176.545 81.1434 177.422 81.1434 178.503C81.1434 179.584 82.0198 180.46 83.1008 180.46Z" fill="#2F073A"/>
<path d="M82.7519 180.001C83.6385 180.001 84.3572 179.283 84.3572 178.396C84.3572 177.509 83.6385 176.791 82.7519 176.791C81.8653 176.791 81.1466 177.509 81.1466 178.396C81.1466 179.283 81.8653 180.001 82.7519 180.001Z" fill="#D8BA9F"/>
<path d="M84.3573 178.396C84.3573 178.824 84.1872 179.235 83.8843 179.538C83.5814 179.841 83.1706 180.011 82.7423 180.011H82.5743C82.957 179.954 83.3064 179.761 83.559 179.468C83.8115 179.175 83.9505 178.801 83.9505 178.414C83.9505 178.027 83.8115 177.653 83.559 177.36C83.3064 177.067 82.957 176.874 82.5743 176.817C82.6303 176.813 82.6864 176.813 82.7423 176.817C83.1645 176.817 83.57 176.982 83.8719 177.277C84.1738 177.572 84.348 177.974 84.3573 178.396Z" fill="#C89F87"/>
<path d="M82.7519 179.265C82.6705 179.291 82.5854 179.304 82.5 179.304C82.2567 179.304 82.0233 179.207 81.8513 179.035C81.6793 178.863 81.5826 178.63 81.5826 178.386C81.5826 178.143 81.6793 177.91 81.8513 177.738C82.0233 177.566 82.2567 177.469 82.5 177.469C82.5854 177.469 82.6705 177.482 82.7519 177.508C82.5612 177.563 82.3935 177.678 82.2741 177.836C82.1547 177.995 82.0902 178.188 82.0902 178.386C82.0902 178.585 82.1547 178.778 82.2741 178.936C82.3935 179.095 82.5612 179.21 82.7519 179.265Z" fill="#F5EAE4"/>
<path d="M91.7314 180.001C92.618 180.001 93.3367 179.283 93.3367 178.396C93.3367 177.509 92.618 176.791 91.7314 176.791C90.8448 176.791 90.1261 177.509 90.1261 178.396C90.1261 179.283 90.8448 180.001 91.7314 180.001Z" fill="#D8BA9F"/>
<path d="M92.0802 180.46C93.1612 180.46 94.0376 179.584 94.0376 178.503C94.0376 177.422 93.1612 176.545 92.0802 176.545C90.9992 176.545 90.1228 177.422 90.1228 178.503C90.1228 179.584 90.9992 180.46 92.0802 180.46Z" fill="#2F073A"/>
<path d="M91.7314 180.001C92.618 180.001 93.3367 179.283 93.3367 178.396C93.3367 177.509 92.618 176.791 91.7314 176.791C90.8448 176.791 90.1261 177.509 90.1261 178.396C90.1261 179.283 90.8448 180.001 91.7314 180.001Z" fill="#D8BA9F"/>
<path d="M93.3335 178.396C93.3335 178.824 93.1633 179.235 92.8605 179.538C92.5576 179.841 92.1468 180.011 91.7185 180.011H91.5505C91.9332 179.954 92.2826 179.761 92.5352 179.468C92.7877 179.175 92.9266 178.801 92.9266 178.414C92.9266 178.027 92.7877 177.653 92.5352 177.36C92.2826 177.067 91.9332 176.874 91.5505 176.817C91.6065 176.813 91.6626 176.813 91.7185 176.817C92.1407 176.817 92.5462 176.982 92.8481 177.277C93.15 177.572 93.3242 177.974 93.3335 178.396Z" fill="#C89F87"/>
<path d="M91.7314 179.265C91.65 179.291 91.5649 179.304 91.4795 179.304C91.2362 179.304 91.0028 179.207 90.8308 179.035C90.6588 178.863 90.5621 178.63 90.5621 178.386C90.5621 178.143 90.6588 177.91 90.8308 177.738C91.0028 177.566 91.2362 177.469 91.4795 177.469C91.5649 177.469 91.65 177.482 91.7314 177.508C91.5388 177.561 91.3688 177.675 91.2477 177.834C91.1266 177.993 91.0609 178.187 91.0609 178.386C91.0609 178.586 91.1266 178.78 91.2477 178.939C91.3688 179.098 91.5388 179.212 91.7314 179.265Z" fill="#F5EAE4"/>
<path d="M189.389 155.449C191.068 155.295 192.304 153.81 192.15 152.131C191.997 150.452 190.511 149.216 188.832 149.37L179.366 150.236C177.687 150.39 176.451 151.875 176.605 153.554C176.758 155.233 178.244 156.469 179.923 156.315L189.389 155.449Z" fill="#EA8681"/>
<path d="M190.027 160.999C193.348 160.999 196.041 158.307 196.041 154.985C196.041 151.663 193.348 148.971 190.027 148.971C186.705 148.971 184.012 151.663 184.012 154.985C184.012 158.307 186.705 160.999 190.027 160.999Z" fill="#EA8681"/>
<path d="M184.798 157.379L184.798 157.382C184.751 162.086 188.527 165.937 193.23 165.984L229.86 166.348C234.564 166.395 238.415 162.62 238.462 157.916L238.462 157.913C238.509 153.209 234.733 149.358 230.03 149.311L193.4 148.946C188.696 148.9 184.845 152.675 184.798 157.379Z" fill="#EF948C"/>
<path d="M197.285 164.152C200.949 161.271 201.584 155.965 198.703 152.302C195.822 148.638 190.517 148.004 186.853 150.886L181.051 155.448C177.387 158.329 176.752 163.635 179.633 167.298C182.513 170.961 187.819 171.595 191.483 168.714L197.285 164.152Z" fill="#EF948C"/>
<path d="M189.344 156.69C190.67 155.648 190.899 153.729 189.857 152.403C188.815 151.078 186.896 150.849 185.571 151.891L172.137 162.455C170.812 163.497 170.582 165.416 171.624 166.741C172.666 168.066 174.585 168.295 175.911 167.253L189.344 156.69Z" fill="#EF948C"/>
<path d="M189.389 155.449C191.068 155.295 192.304 153.81 192.15 152.131C191.997 150.452 190.511 149.216 188.832 149.369L179.366 150.236C177.687 150.39 176.451 151.875 176.605 153.554C176.758 155.233 178.244 156.469 179.923 156.315L189.389 155.449Z" fill="#EF948C"/>
<path d="M190.027 160.999C193.348 160.999 196.041 158.307 196.041 154.985C196.041 151.663 193.348 148.971 190.027 148.971C186.705 148.971 184.012 151.663 184.012 154.985C184.012 158.307 186.705 160.999 190.027 160.999Z" fill="#EF948C"/>
<path d="M184.798 157.379L184.798 157.382C184.751 162.086 188.527 165.937 193.23 165.984L229.86 166.348C234.564 166.395 238.415 162.62 238.462 157.916L238.462 157.913C238.509 153.209 234.733 149.358 230.03 149.311L193.4 148.946C188.696 148.9 184.845 152.675 184.798 157.379Z" fill="#EF948C"/>
<path d="M197.285 164.152C200.949 161.271 201.584 155.965 198.703 152.302C195.822 148.638 190.517 148.004 186.853 150.886L181.051 155.448C177.387 158.329 176.752 163.635 179.633 167.298C182.513 170.961 187.819 171.595 191.483 168.714L197.285 164.152Z" fill="#EF948C"/>
<path d="M178.812 165.163C180.196 166.922 182.222 168.06 184.444 168.326C186.666 168.592 188.903 167.964 190.663 166.581L191.632 165.815L194.113 163.877L197.608 163.91L228.997 164.233C231.256 164.255 233.432 163.379 235.045 161.798C236.659 160.216 237.578 158.058 237.601 155.799V155.686C237.602 154.996 237.517 154.308 237.349 153.638C238.072 154.913 238.45 156.353 238.448 157.818V157.905C238.438 159.024 238.207 160.129 237.77 161.159C237.332 162.188 236.696 163.121 235.898 163.905C235.1 164.689 234.155 165.308 233.118 165.726C232.081 166.145 230.971 166.355 229.853 166.345L194.969 166.003L191.513 168.719C190.403 169.59 189.094 170.169 187.703 170.404C186.313 170.639 184.885 170.522 183.552 170.063C182.218 169.604 181.021 168.819 180.069 167.778C179.117 166.738 178.44 165.476 178.102 164.107C178.312 164.476 178.549 164.829 178.812 165.163Z" fill="#F3A6A0"/>
<path d="M189.344 156.69C190.67 155.648 190.899 153.729 189.857 152.403C188.815 151.078 186.896 150.849 185.571 151.891L172.137 162.455C170.812 163.497 170.582 165.416 171.624 166.741C172.666 168.066 174.585 168.295 175.911 167.253L189.344 156.69Z" fill="#EF948C"/>
<path d="M193.013 161.559C194.169 160.65 194.37 158.974 193.46 157.818C192.55 156.661 190.875 156.46 189.718 157.37L185.818 160.437C184.661 161.347 184.461 163.022 185.371 164.179C186.28 165.336 187.956 165.536 189.113 164.626L193.013 161.559Z" fill="#F3A6A0"/>
<path d="M169.206 96.0214C174.128 96.0214 178.118 92.0316 178.118 87.1099C178.118 82.1881 174.128 78.1983 169.206 78.1983C164.284 78.1983 160.295 82.1881 160.295 87.1099C160.295 92.0316 164.284 96.0214 169.206 96.0214Z" stroke="#D7F3FE" stroke-width="2.85" stroke-miterlimit="10"/>
<path d="M190.233 96.0214C195.155 96.0214 199.145 92.0316 199.145 87.1099C199.145 82.1881 195.155 78.1983 190.233 78.1983C185.312 78.1983 181.322 82.1881 181.322 87.1099C181.322 92.0316 185.312 96.0214 190.233 96.0214Z" stroke="#D7F3FE" stroke-width="2.85" stroke-miterlimit="10"/>
<path d="M178.111 87.4587H181.328" stroke="#D7F3FE" stroke-width="2.85" stroke-miterlimit="10"/>
<path d="M95.6913 261.656L120.372 271.549L123.159 264.324L99.0311 249.957L95.701 258.571L95.6913 261.656Z" fill="#141334"/>
<path d="M131.732 163.125H126.68V162.156C126.68 161.715 126.855 161.293 127.166 160.982C127.478 160.67 127.9 160.496 128.34 160.496H130.075C130.515 160.496 130.937 160.67 131.249 160.982C131.56 161.293 131.735 161.715 131.735 162.156V163.125H131.732Z" fill="#383D43"/>
<path d="M136.783 163.125H131.732V162.156C131.734 161.718 131.91 161.298 132.22 160.989C132.531 160.68 132.951 160.506 133.389 160.505H135.123C135.563 160.505 135.986 160.68 136.297 160.991C136.608 161.303 136.783 161.725 136.783 162.165V163.134V163.125Z" fill="#383D43"/>
<path d="M141.838 163.125H136.787V162.156C136.787 161.715 136.962 161.293 137.273 160.982C137.584 160.67 138.007 160.496 138.447 160.496H140.181C140.622 160.496 141.044 160.67 141.355 160.982C141.667 161.293 141.842 161.715 141.842 162.156V163.125H141.838Z" fill="#383D43"/>
<path d="M146.89 163.125H141.838V162.156C141.838 161.715 142.013 161.293 142.325 160.982C142.636 160.67 143.058 160.496 143.499 160.496H145.233C145.673 160.496 146.096 160.67 146.407 160.982C146.718 161.293 146.893 161.715 146.893 162.156V163.125H146.89Z" fill="#383D43"/>
<path d="M151.942 163.125H146.89V162.156C146.89 161.715 147.065 161.293 147.376 160.982C147.688 160.67 148.11 160.496 148.55 160.496H150.285C150.725 160.496 151.147 160.67 151.459 160.982C151.77 161.293 151.945 161.715 151.945 162.156V163.125H151.942Z" fill="#383D43"/>
<path d="M156.997 163.125H151.945V162.156C151.945 161.715 152.12 161.293 152.431 160.982C152.743 160.67 153.165 160.496 153.605 160.496H155.336C155.777 160.496 156.199 160.67 156.51 160.982C156.822 161.293 156.997 161.715 156.997 162.156V163.125Z" fill="#383D43"/>
<path d="M162.045 163.125H156.993V162.156C156.996 161.717 157.173 161.296 157.484 160.987C157.796 160.678 158.218 160.504 158.657 160.505H160.391C160.832 160.505 161.254 160.68 161.565 160.991C161.877 161.303 162.052 161.725 162.052 162.165V163.134L162.045 163.125Z" fill="#383D43"/>
<path d="M113.153 165.815H166.706C167.842 165.815 168.764 164.894 168.764 163.758V163.755C168.764 162.618 167.842 161.697 166.706 161.697H113.153C112.016 161.697 111.095 162.618 111.095 163.755V163.758C111.095 164.894 112.016 165.815 113.153 165.815Z" fill="#3EA8D0"/>
<path d="M126.98 165.815H78.8533C77.8731 165.815 76.921 165.488 76.148 164.885C75.375 164.283 74.8254 163.439 74.5865 162.488L65.2195 125.227C65.0564 124.578 65.0436 123.9 65.182 123.245C65.3203 122.59 65.6062 121.975 66.0179 121.447C66.4296 120.919 66.9563 120.492 67.5579 120.199C68.1595 119.905 68.8201 119.752 69.4896 119.752H111.958C112.938 119.752 113.89 120.079 114.663 120.682C115.436 121.285 115.986 122.129 116.224 123.079L126.98 165.815Z" fill="#5BBEE5"/>
<path d="M65.2163 125.227L74.5833 162.488C74.8233 163.439 75.3735 164.283 76.1468 164.886C76.9202 165.489 77.8726 165.817 78.8534 165.818H126.98L125.944 161.7H87.9264C86.9455 161.7 85.9929 161.372 85.2194 160.769C84.4459 160.165 83.8958 159.321 83.6564 158.37L74.2797 121.125C74.1682 120.681 74.1257 120.222 74.1537 119.765H69.4864C68.8183 119.766 68.1591 119.918 67.5587 120.211C66.9583 120.504 66.4325 120.93 66.021 121.456C65.6096 121.982 65.3233 122.595 65.1839 123.249C65.0444 123.902 65.0555 124.579 65.2163 125.227Z" fill="#3EA8D0"/>
<path d="M93.0848 146.426C94.4155 146.426 95.4943 145.347 95.4943 144.016C95.4943 142.685 94.4155 141.606 93.0848 141.606C91.754 141.606 90.6752 142.685 90.6752 144.016C90.6752 145.347 91.754 146.426 93.0848 146.426Z" fill="#F8FDFF"/>
<path d="M89.8612 147.611C90.2415 148.206 90.7503 148.707 91.3501 149.079C91.9499 149.451 92.6255 149.684 93.3271 149.76C94.0287 149.836 94.7385 149.754 95.4041 149.519C96.0698 149.285 96.6744 148.904 97.1734 148.405C97.6725 147.906 98.0532 147.301 98.2876 146.636C98.5221 145.97 98.6042 145.26 98.528 144.559C98.4518 143.857 98.2192 143.182 97.8474 142.582C97.4755 141.982 96.9739 141.473 96.3793 141.093C96.9552 141.999 97.2049 143.075 97.0873 144.142C96.9697 145.21 96.4919 146.205 95.7326 146.964C94.9733 147.724 93.9778 148.201 92.9105 148.319C91.8431 148.437 90.7676 148.187 89.8612 147.611Z" fill="#F8FDFF"/>
<path d="M187.236 273.148H214.924L217.747 266.032L182.197 260.451L187.236 273.148Z" fill="#332D52"/>
<path d="M212.624 271.911C213.578 271.911 214.352 271.137 214.352 270.183C214.352 269.229 213.578 268.455 212.624 268.455C211.669 268.455 210.896 269.229 210.896 270.183C210.896 271.137 211.669 271.911 212.624 271.911Z" fill="#141334"/>
<path d="M212.724 271.911C213.42 271.911 213.984 271.347 213.984 270.651C213.984 269.956 213.42 269.392 212.724 269.392C212.028 269.392 211.464 269.956 211.464 270.651C211.464 271.347 212.028 271.911 212.724 271.911Z" fill="#666DA2"/>
<path d="M212.711 271.475C212.767 271.48 212.823 271.48 212.879 271.475C213.093 271.462 213.294 271.367 213.441 271.211C213.588 271.055 213.67 270.848 213.67 270.634C213.67 270.419 213.588 270.213 213.441 270.056C213.294 269.9 213.093 269.806 212.879 269.792C212.822 269.792 212.766 269.799 212.711 269.812C212.899 269.853 213.067 269.957 213.188 270.107C213.308 270.256 213.374 270.443 213.374 270.635C213.374 270.828 213.308 271.014 213.188 271.164C213.067 271.314 212.899 271.418 212.711 271.459V271.475Z" fill="#332D52"/>
<path d="M212.918 269.598C212.847 269.583 212.774 269.575 212.701 269.576C212.427 269.591 212.168 269.711 211.979 269.91C211.79 270.11 211.685 270.375 211.685 270.65C211.685 270.925 211.79 271.189 211.979 271.389C212.168 271.589 212.427 271.709 212.701 271.724C212.774 271.725 212.847 271.717 212.918 271.701C212.677 271.649 212.462 271.517 212.308 271.325C212.153 271.134 212.069 270.896 212.069 270.65C212.069 270.404 212.153 270.165 212.308 269.974C212.462 269.783 212.677 269.65 212.918 269.598Z" fill="#9DA5D1"/>
<path d="M93.6241 263.339L119.322 273.639L124.59 268.087L93.6694 249.679L93.6241 263.339Z" fill="#262344"/>
<path d="M118.427 270.719C119.382 270.719 120.155 269.946 120.155 268.991C120.155 268.037 119.382 267.263 118.427 267.263C117.473 267.263 116.699 268.037 116.699 268.991C116.699 269.946 117.473 270.719 118.427 270.719Z" fill="#141334"/>
<path d="M118.527 270.719C119.223 270.719 119.787 270.155 119.787 269.46C119.787 268.764 119.223 268.2 118.527 268.2C117.832 268.2 117.268 268.764 117.268 269.46C117.268 270.155 117.832 270.719 118.527 270.719Z" fill="#666DA2"/>
<path d="M118.527 270.28C118.583 270.293 118.639 270.299 118.695 270.299C118.91 270.286 119.111 270.192 119.258 270.035C119.404 269.879 119.486 269.672 119.486 269.458C119.486 269.243 119.404 269.037 119.258 268.88C119.111 268.724 118.91 268.63 118.695 268.616C118.64 268.612 118.583 268.612 118.527 268.616C118.715 268.657 118.884 268.762 119.004 268.911C119.125 269.061 119.191 269.248 119.191 269.44C119.191 269.632 119.125 269.819 119.004 269.969C118.884 270.119 118.715 270.223 118.527 270.264V270.28Z" fill="#332D52"/>
<path d="M118.718 268.413C118.647 268.397 118.574 268.39 118.502 268.39C118.227 268.406 117.968 268.525 117.779 268.725C117.59 268.925 117.485 269.189 117.485 269.464C117.485 269.739 117.59 270.004 117.779 270.204C117.968 270.404 118.227 270.523 118.502 270.538C118.574 270.539 118.647 270.532 118.718 270.516C118.478 270.464 118.262 270.331 118.108 270.14C117.954 269.949 117.869 269.71 117.869 269.464C117.869 269.219 117.954 268.98 118.108 268.789C118.262 268.598 118.478 268.465 118.718 268.413Z" fill="#9DA5D1"/>
</svg>
