<svg width="376" height="201" viewBox="0 0 376 201" fill="none" xmlns="http://www.w3.org/2000/svg">
<g clip-path="url(#clip0_462_4143)">
<path d="M366.6 97.3448C366.6 81.9578 354.023 69.4842 338.509 69.4842H263.156C255.102 69.4842 248.573 63.0092 248.573 55.0218C248.573 47.0344 255.102 40.5594 263.156 40.5594H283.496C294.776 40.5594 303.92 31.4904 303.92 20.3033C303.92 9.1161 294.776 0.0471191 283.496 0.0471191H54.2693C48.4762 0.0471191 43.78 4.70476 43.78 10.4503C43.78 16.1994 48.4726 20.8634 54.2693 20.8756L112.13 20.9976C117.196 21.0083 121.354 24.9765 121.556 29.9963C121.56 30.0933 121.564 30.1904 121.568 30.2876C121.797 35.9368 117.322 40.5593 111.621 40.5593L79.6506 40.5592C70.2792 40.5592 62.6821 48.0985 62.6821 57.3931C62.6821 57.6705 62.6821 57.8237 62.6821 57.8237C62.6821 67.4905 70.514 75.2581 80.1751 75.2581H136.227C144.142 75.2581 150.559 81.6221 150.559 89.4725C150.559 97.323 144.142 103.687 136.227 103.687H56.3572C46.0426 103.687 37.681 111.98 37.681 122.21C37.681 132.44 46.0426 140.733 56.3572 140.733H86.2498C95.4329 140.733 102.877 148.116 102.877 157.224C102.877 166.331 95.4329 173.714 86.2498 173.714H23.2156C15.5854 173.714 9.3999 179.849 9.3999 187.417C9.3999 194.984 15.5854 201.119 23.2156 201.119H306.149C319.563 201.119 330.437 190.334 330.437 177.03C330.437 163.727 319.563 152.942 306.149 152.942H269.89C262.168 152.942 255.907 146.733 255.907 139.074C255.907 131.414 262.168 125.205 269.89 125.205H338.509C354.023 125.205 366.6 112.732 366.6 97.3448Z" fill="#EFEFFC"/>
<path d="M279.605 182.81C275.542 168.844 260.049 161.5 245.664 158.716C231.28 155.931 215.922 155.8 203.11 148.742C185.638 139.117 176.842 118.805 160.652 107.183C156.173 103.968 151.305 101.534 146.185 99.6829C143.606 102.158 140.099 103.687 136.227 103.687H56.3572C46.0426 103.687 37.681 111.98 37.681 122.21C37.681 132.44 46.0426 140.733 56.3572 140.733H86.2499C95.433 140.733 102.877 148.116 102.877 157.224C102.877 166.331 95.433 173.715 86.2499 173.715H23.2156C15.5854 173.715 9.3999 179.849 9.3999 187.417C9.3999 194.984 15.5854 201.119 23.2156 201.119H284.76L279.605 182.81Z" fill="#618BD6"/>
<path d="M118.523 111.432C116.581 111.189 114.691 111.225 112.855 111.564C106.73 112.693 102.756 118.619 103.747 124.719C107.139 145.595 110.458 192.006 106.054 201.119H120.943C120.943 201.119 131.022 145.433 128.623 121.702C128.084 116.366 123.887 112.104 118.523 111.432Z" fill="#5B75AE"/>
<path d="M115.286 152.838C116.502 154.762 119.061 155.343 121.001 154.136C122.941 152.93 123.528 150.392 122.311 148.468C121.094 146.544 118.535 145.962 116.595 147.169C114.655 148.376 114.069 150.914 115.286 152.838Z" fill="#9CB2D5"/>
<path d="M106.014 142.722C106.747 143.153 107.601 143.405 108.515 143.405C111.232 143.405 113.434 141.22 113.434 138.526C113.434 135.831 111.232 133.647 108.515 133.647C107.218 133.647 106.042 134.148 105.164 134.961C105.459 137.424 105.744 140.027 106.014 142.722Z" fill="#9CB2D5"/>
<path d="M117.693 126.947C117.693 130.647 120.718 133.647 124.448 133.647C126.195 133.647 127.782 132.983 128.982 131.904C129.027 128.119 128.922 124.662 128.623 121.702C128.622 121.696 128.621 121.691 128.62 121.685C127.471 120.788 126.025 120.248 124.448 120.248C120.718 120.248 117.693 123.247 117.693 126.947Z" fill="#9CB2D5"/>
<path d="M123.875 183.119C121.837 181.354 118.798 181.034 116.388 182.534C113.44 184.367 112.55 188.223 114.398 191.146C116.075 193.797 119.426 194.763 122.235 193.554C122.706 190.683 123.273 187.13 123.875 183.119Z" fill="#9CB2D5"/>
<path d="M115.27 169.184C115.27 165.484 112.246 162.484 108.515 162.484C108.196 162.484 107.884 162.514 107.577 162.556C107.838 167.114 108.025 171.615 108.112 175.863C108.246 175.871 108.379 175.883 108.515 175.883C112.246 175.883 115.27 172.884 115.27 169.184Z" fill="#9CB2D5"/>
<path d="M187.273 158.555L186.843 159.138C185.647 160.759 183.287 161.037 181.735 159.669C180.382 158.476 180.269 156.408 181.338 154.959L185.584 149.203C186.62 147.8 187.204 146.115 187.228 144.377C187.229 144.333 187.229 144.299 187.229 144.275L186.934 125.933C186.879 122.469 189.282 119.331 192.723 118.729C197.07 117.969 200.948 121.263 201.017 125.494L201.266 141.002C205.539 141.002 208.466 145.778 208.917 149.993C209.368 154.208 206.959 158.582 203.139 160.482C198.314 162.882 192.671 158.555 187.273 158.555Z" fill="#DFA2A2"/>
<path d="M147.948 107.268C145.43 107.268 142.945 106.133 141.317 103.986L125.446 80.5959C122.595 76.8334 123.493 71.4319 127.511 68.7955C131.218 66.3624 136.246 67.4861 138.876 71.0408L150.209 86.3553L177.714 67.8158C188.743 68.7845 192.564 82.7916 186.733 87.0339L152.843 105.675C151.367 106.749 149.65 107.268 147.948 107.268Z" fill="#3EA8D0"/>
<path d="M122.357 74.4672L126.44 79.8555C127.824 81.6822 129.937 82.6445 132.076 82.6445C133.549 82.6445 135.035 82.1878 136.303 81.2428C139.413 78.9244 140.039 74.545 137.702 71.461L133.618 66.0728C135.106 64.6733 135.692 62.9571 135.756 60.9246C135.82 58.8921 134.773 56.7887 132.953 55.8525C131.133 54.9164 128.609 55.3976 127.48 57.0954C127.376 53.8009 123.727 51.3581 120.405 51.4382C117.083 51.5183 114.097 53.6765 112.181 56.3702C109.308 60.411 108.524 66.0475 110.902 70.3933C113.28 74.7391 117.786 76.442 122.357 74.4672Z" fill="#DFA2A2"/>
<path d="M217.565 139.913C217.468 139.913 217.372 139.913 217.275 139.91C210.869 139.754 205.805 134.477 205.962 128.125L206.635 100.964C206.793 94.6106 212.14 89.5983 218.518 89.7436C224.924 89.9001 229.988 95.1764 229.831 101.529L229.158 128.69C229.002 134.946 223.839 139.913 217.565 139.913Z" fill="#2C384F"/>
<path d="M264.136 94.4958C268.071 94.4958 271.261 91.3321 271.261 87.4294C271.261 83.5268 268.071 80.363 264.136 80.363C260.201 80.363 257.011 83.5268 257.011 87.4294C257.011 91.3321 260.201 94.4958 264.136 94.4958Z" fill="#DFA2A2"/>
<path d="M230.352 125.63C243.122 106.417 250.344 95.5505 258.187 83.7507L270.681 90.4323C265.05 103.415 259.864 115.37 250.695 136.51L230.352 125.63Z" fill="#DFA2A2"/>
<path d="M240.473 131.266L250.987 136.889C260.288 115.446 265.548 103.318 271.26 90.149L267.377 88.0723C261.524 97.3001 248.02 119.076 240.473 131.266Z" fill="#BE7171"/>
<path d="M295.109 55.0407C295.109 52.2356 292.816 49.9616 289.987 49.9616C288.791 49.9616 287.705 50.3852 286.833 51.067L286.854 51.0231C284.424 52.8876 281.31 51.429 281.217 48.383L281.207 48.4059C281.136 45.6622 278.882 43.4565 276.099 43.4565C273.855 43.4565 272.344 45.0696 271.261 46.882C269.257 50.2323 254.825 81.8528 254.825 87.4294C254.825 92.5293 258.994 96.6636 264.136 96.6636C267.46 96.6636 270.369 94.9307 272.016 92.3316C280.95 82.088 293.233 61.1284 294.635 57.1644C294.936 56.5176 295.109 55.7999 295.109 55.0407Z" fill="#425273"/>
<path d="M235.989 78.0406C239.596 78.0406 242.52 75.1406 242.52 71.5632C242.52 67.9859 239.596 65.0859 235.989 65.0859C232.382 65.0859 229.458 67.9859 229.458 71.5632C229.458 75.1406 232.382 78.0406 235.989 78.0406Z" fill="#DFA2A2"/>
<path d="M217.291 98.9183C222.476 86.8131 226.128 78.2894 230.013 69.22L242.39 73.1993C240.266 82.3939 238.265 91.0589 235.5 103.028C234.468 107.497 215.659 102.727 217.291 98.9183Z" fill="#DFA2A2"/>
<path d="M237.157 71.5166L227.158 104.446C231.207 105.169 235.05 104.98 235.5 103.028C238.265 91.0588 240.267 82.3938 242.391 73.1992L237.157 71.5166Z" fill="#BE7171"/>
<path d="M258.526 37.2896C258.059 34.7604 255.614 33.0854 253.063 33.5484C251.985 33.7442 251.076 34.3039 250.403 35.0614L250.415 35.0184C248.534 37.0974 245.483 36.292 244.893 33.5607L244.887 33.5831C244.367 31.1208 241.968 29.501 239.458 29.9566C237.435 30.3239 236.341 32.0256 235.666 33.8371C234.417 37.1858 226.666 68.0589 227.595 73.0871C228.443 77.6855 232.89 80.7308 237.526 79.889C240.523 79.3449 242.661 77.2195 243.91 74.6932C249.424 63.5472 257.848 43.0857 258.452 39.2821C258.616 38.6495 258.652 37.9742 258.526 37.2896Z" fill="#425273"/>
<path d="M237.165 41.2742L234.301 53.4623C233.9 55.1696 234.971 56.8762 236.692 57.274C238.414 57.6718 240.134 56.6102 240.535 54.9029L243.399 42.7147C243.8 41.0074 242.729 39.3008 241.008 38.903C239.287 38.5052 237.566 39.5668 237.165 41.2742Z" fill="#5E74A3"/>
<path d="M240.039 143.472C235.34 143.472 230.919 140.62 229.173 136L215.095 98.731C212.847 92.7797 215.889 86.1486 221.888 83.9194C227.888 81.6885 234.575 84.7067 236.823 90.6568L250.901 127.926C253.15 133.877 250.108 140.508 244.108 142.738C242.767 143.235 241.391 143.472 240.039 143.472Z" fill="#425273"/>
<path d="M235.146 120.55C234.511 118.791 232.558 117.876 230.784 118.506C229.011 119.136 228.088 121.073 228.723 122.832L233.112 134.989C233.748 136.748 235.7 137.663 237.474 137.033C239.248 136.403 240.171 134.467 239.536 132.707L235.146 120.55Z" fill="#5E74A3"/>
<path d="M215.323 113.998C192.511 113.998 174.658 102.85 166.603 83.079C163.26 74.8724 167.257 65.5318 175.532 62.2158C183.806 58.899 193.224 62.8639 196.568 71.0705C201.277 82.6296 212.569 82.6143 220.656 81.597C229.516 80.4802 237.598 86.6988 238.72 95.4789C239.843 104.259 233.576 112.281 224.723 113.395C221.511 113.799 218.371 113.998 215.323 113.998Z" fill="#425273"/>
<path d="M210.387 113.811C209.878 113.811 209.365 113.788 208.848 113.74C189.189 111.898 173.792 100.722 166.604 83.0791C163.26 74.8724 167.257 65.5318 175.532 62.2158C183.806 58.899 193.223 62.8639 196.568 71.0705C199.262 77.6835 204.13 81.1018 211.887 81.8286C220.772 82.6609 227.294 90.4794 226.455 99.2912C225.665 107.59 218.626 113.811 210.387 113.811Z" fill="#5BBEE5"/>
<path d="M179.973 29.5512C169.282 20.6876 147.819 23.687 150.427 42.91L182.681 68.3293C189.776 68.3293 197.804 57.779 192.308 49.2393C193.437 41.2664 192.308 31.1714 179.973 29.5512Z" fill="#323D54"/>
<path d="M178.657 75.8599C174.058 78.1556 168.454 76.319 166.139 71.7578L156.56 52.8806L173.214 44.5674L182.793 63.4446C185.108 68.0058 183.256 73.5643 178.657 75.8599Z" fill="#DFA2A2"/>
<path d="M169.207 46.5677L156.56 52.8807L166.139 71.758C166.399 72.2701 166.706 72.7424 167.043 73.1839C171.021 71.4932 173.994 67.7884 174.493 63.2165L175.181 56.9539C171.929 55.7302 168.955 51.7456 169.207 46.5677Z" fill="#BE7171"/>
<path d="M177.715 51.7819L177.027 58.0445C176.289 64.7921 170.174 69.6657 163.37 68.9343L161.564 68.737C154.711 68.0056 149.755 61.8909 150.501 55.094L151.694 44.1468C151.698 44.1126 151.702 44.0786 151.706 44.0446C152.382 38.2774 157.755 34.1816 163.583 34.7269C166.15 34.9671 168.789 35.8586 171.043 37.7696C171.706 38.332 171.996 39.2137 171.866 40.0694C170.981 45.8883 174.189 50.4554 177.715 51.7819Z" fill="#DFA2A2"/>
<path d="M182.096 57.149C184.318 55.7573 185.169 53.1362 183.997 51.2945C182.824 49.4528 180.072 49.088 177.85 50.4797C175.628 51.8713 174.777 54.4925 175.949 56.3342C177.122 58.1759 179.874 58.5407 182.096 57.149Z" fill="#DFA2A2"/>
<path d="M170.95 64.6979C170.41 64.6979 169.868 64.6682 169.324 64.6076L158.42 63.3961C157.283 63.2696 156.464 62.2532 156.592 61.1255C156.719 59.9983 157.742 59.1836 158.881 59.3124L169.785 60.524C172.51 60.827 175.179 60.0552 177.311 58.3533C179.444 56.651 180.775 54.2267 181.059 51.526L183.907 24.4666C184.026 23.3386 185.047 22.5207 186.183 22.6367C187.321 22.7543 188.147 23.7647 188.028 24.8936L185.18 51.953C184.78 55.7509 182.908 59.1607 179.908 61.5549C177.335 63.6084 174.203 64.6979 170.95 64.6979Z" fill="#E2E8FD"/>
<path d="M176.571 51.8137C175.556 51.8137 174.667 51.772 173.962 51.6869C172.599 51.5223 171.628 50.2931 171.794 48.9416C171.96 47.5896 173.203 46.626 174.562 46.7918C177.956 47.1999 187.335 46.2757 191.322 44.5666C192.584 44.0252 194.045 44.6027 194.59 45.8519C195.135 47.1016 194.555 48.5531 193.295 49.0933C189.197 50.8497 181.442 51.8137 176.571 51.8137Z" fill="#5BBEE5"/>
<path d="M170.284 59.4224C169.976 59.4224 169.665 59.3974 169.359 59.3482L165.659 58.7515C164.326 58.5368 163.103 57.9356 162.123 57.013L160.625 55.6017C160.132 55.1376 159.515 54.842 158.842 54.7474L158.566 54.7086C158.415 54.6874 158.262 54.6769 158.111 54.6769C157.517 54.6769 156.936 54.8379 156.429 55.1422C155.383 55.7688 154.186 56.0999 152.964 56.0999C152.278 56.0999 151.598 55.9961 150.944 55.7905C148.534 55.0338 146.95 52.7578 147.091 50.2554L147.325 46.097C147.5 42.9917 150.091 40.5593 153.223 40.5593C153.404 40.5593 153.586 40.5672 153.769 40.5839L167.817 41.8635C172.478 42.2879 175.993 46.1086 175.993 50.7507V53.7522C175.993 56.8787 173.432 59.4224 170.284 59.4224Z" fill="#3F6381"/>
<path d="M168.425 59.4224C168.128 59.4224 167.828 59.3983 167.534 59.351L163.972 58.7767C162.689 58.5701 161.512 57.9914 160.57 57.1033L159.127 55.7449C158.652 55.2983 158.059 55.0138 157.411 54.9226L157.146 54.8853C157 54.8648 156.853 54.8548 156.707 54.8548C156.136 54.8548 155.577 55.0097 155.088 55.3027C154.082 55.9058 152.929 56.2245 151.753 56.2245C151.093 56.2245 150.439 56.1245 149.809 55.9267C147.49 55.1983 145.965 53.0077 146.101 50.599L146.326 46.5964C146.494 43.6075 148.988 41.2664 152.003 41.2664C152.176 41.2664 152.352 41.274 152.528 41.29L166.049 42.5216C170.536 42.9301 173.919 46.6077 173.919 51.0757V53.9647C173.919 56.9741 171.454 59.4224 168.425 59.4224Z" fill="#C7E3F7"/>
<path d="M152.377 42.9272L165.898 44.1586C169.503 44.4869 172.262 47.4856 172.262 51.076V53.9649C172.262 56.3152 170.139 58.106 167.8 57.7288L164.238 57.1545C163.289 57.0014 162.408 56.5682 161.711 55.9114L160.268 54.553C159.547 53.8734 158.629 53.4338 157.644 53.2954L157.379 53.2582C156.287 53.1047 155.175 53.33 154.231 53.8961C153.052 54.6031 151.623 54.772 150.31 54.3597C148.713 53.8587 147.662 52.3488 147.756 50.6911L147.981 46.6879C148.108 44.4259 150.102 42.72 152.377 42.9272Z" fill="#86B8F1"/>
<path d="M154.676 48.5994C154.712 47.8066 154.301 47.1439 153.756 47.1192C153.212 47.0945 152.741 47.7172 152.704 48.51C152.668 49.3029 153.079 49.9656 153.624 49.9903C154.168 50.0149 154.639 49.3923 154.676 48.5994Z" fill="#232C45"/>
<path d="M166.327 50.7203C166.363 49.9275 165.951 49.2648 165.407 49.2401C164.863 49.2154 164.392 49.8381 164.355 50.6309C164.319 51.4237 164.73 52.0864 165.275 52.1111C165.819 52.1358 166.29 51.5131 166.327 50.7203Z" fill="#232C45"/>
<path d="M155.899 46.6225C155.787 46.6225 155.676 46.578 155.594 46.4897C154.217 45.0037 152.529 45.3901 151.789 45.9832C151.611 46.1261 151.35 46.098 151.207 45.9214C151.063 45.7449 151.091 45.486 151.269 45.3436C152.491 44.366 154.636 44.2404 156.204 45.9335C156.359 46.1008 156.348 46.3605 156.179 46.5142C156.1 46.5868 155.999 46.6225 155.899 46.6225Z" fill="#232C45"/>
<path d="M168.717 48.6968C168.594 48.6968 168.472 48.6426 168.39 48.5395C167.769 47.7529 167.019 47.3063 166.22 47.2477C165.54 47.1955 164.844 47.4419 164.355 47.901C164.19 48.0563 163.928 48.0503 163.77 47.885C163.613 47.72 163.619 47.46 163.786 47.3039C164.451 46.6798 165.365 46.366 166.281 46.4278C167.004 46.4812 168.071 46.8031 169.043 48.0322C169.184 48.2112 169.152 48.4693 168.972 48.6093C168.896 48.6683 168.806 48.6968 168.717 48.6968Z" fill="#232C45"/>
<path d="M193.647 144.733C188.325 144.733 183.968 141.139 183.883 136.645L182.682 73.3152C182.596 68.7765 186.899 65.0387 192.294 64.9665C197.712 64.869 202.131 68.514 202.217 73.0528L203.418 136.384C203.504 140.922 199.201 144.659 193.806 144.732C193.753 144.733 193.7 144.733 193.647 144.733Z" fill="#3EA8D0"/>
<path d="M199.086 74.9991C199.086 73.0758 197.514 71.5166 195.575 71.5166C193.636 71.5166 192.063 73.0758 192.063 74.9991V98.213C192.063 100.136 193.636 101.696 195.575 101.696C197.514 101.696 199.086 100.136 199.086 98.213V74.9991Z" fill="#9DD8EF"/>
<path d="M198.544 21.9851C196.981 21.9851 195.715 23.2413 195.715 24.7909C195.715 26.3405 196.981 27.5968 198.544 27.5968C200.106 27.5968 201.373 26.3406 201.373 24.7909C201.373 23.2413 200.106 21.9851 198.544 21.9851Z" fill="#5BBEE5"/>
<path d="M178.544 20.2625C177.771 20.2625 177.144 20.8841 177.144 21.6508C177.144 22.4175 177.771 23.0392 178.544 23.0392C179.317 23.0392 179.944 22.4176 179.944 21.6508C179.944 20.884 179.317 20.2625 178.544 20.2625Z" fill="#5BBEE5"/>
<path d="M197.804 -2.72949C197.031 -2.72949 196.404 -2.10788 196.404 -1.34114C196.404 -0.574389 197.031 0.047256 197.804 0.047256C198.577 0.047256 199.204 -0.574352 199.204 -1.34114C199.204 -2.10792 198.577 -2.72949 197.804 -2.72949Z" fill="#5BBEE5"/>
<path d="M195.575 10.144C193.935 10.144 192.605 11.4626 192.605 13.089C192.605 14.7155 193.935 16.034 195.575 16.034C197.215 16.034 198.544 14.7155 198.544 13.089C198.544 11.4625 197.215 10.144 195.575 10.144Z" fill="#5BBEE5"/>
<path d="M188.835 5.66504C188.006 5.66504 187.334 6.33121 187.334 7.15296C187.334 7.97471 188.006 8.64088 188.835 8.64088C189.663 8.64088 190.335 7.97471 190.335 7.15296C190.335 6.33121 189.663 5.66504 188.835 5.66504Z" fill="#5BBEE5"/>
<path d="M183.221 11.8315C181.701 11.8315 180.468 13.0539 180.468 14.5617C180.468 16.0695 181.701 17.2919 183.221 17.2919C184.741 17.2919 185.974 16.0696 185.974 14.5617C185.974 13.0538 184.741 11.8315 183.221 11.8315Z" fill="#5BBEE5"/>
<path d="M149.63 20.8534C150.45 20.8534 151.115 20.1942 151.115 19.3809C151.115 18.5677 150.45 17.9084 149.63 17.9084C148.81 17.9084 148.146 18.5677 148.146 19.3809C148.146 20.1942 148.81 20.8534 149.63 20.8534Z" fill="#5BBEE5"/>
<path d="M142.75 34.0677C144.596 34.0677 146.092 32.5837 146.092 30.7531C146.092 28.9225 144.596 27.4385 142.75 27.4385C140.904 27.4385 139.408 28.9225 139.408 30.7531C139.408 32.5837 140.904 34.0677 142.75 34.0677Z" fill="#5BBEE5"/>
<path d="M299.119 92.375C298.817 91.6076 298.381 90.878 297.795 90.2271C296.132 88.3798 293.718 87.5952 291.418 87.9182C290.835 90.1478 291.348 92.6155 293.011 94.4628C293.595 95.1113 294.275 95.621 295.006 96.0056C294.275 96.3902 293.595 96.8999 293.011 97.5484C291.348 99.3956 290.835 101.863 291.418 104.093C293.718 104.416 296.132 103.631 297.795 101.784C298.351 101.167 298.777 100.48 299.077 99.7562C307.953 108.477 314.581 106.702 319.267 98.0161C319.523 97.5423 319.537 96.9654 319.312 96.4767C315.323 87.8257 310.862 85.3767 299.119 92.375Z" fill="#DA7143"/>
<path d="M310.461 88.3162C308.865 90.7864 307.895 93.9926 307.895 97.5058C307.895 100.463 308.581 103.205 309.749 105.473C310.863 105.469 311.923 105.235 312.929 104.785C311.963 102.66 311.404 100.172 311.404 97.5058C311.404 94.3479 312.189 91.4411 313.507 89.0931C312.591 88.627 311.586 88.3627 310.461 88.3162Z" fill="white"/>
<path d="M302.545 96.6634C302.545 94.1365 303.177 91.7711 304.267 89.7124C303.113 90.1986 301.867 90.8169 300.52 91.5687C299.947 93.153 299.619 94.866 299.619 96.6634C299.619 98.1067 299.826 99.4981 300.203 100.811C301.676 102.139 303.085 103.172 304.43 103.922C303.238 101.794 302.545 99.3163 302.545 96.6634Z" fill="white"/>
<path d="M132.864 133.647C129.512 136.386 112.098 183.99 115.485 201.119H130.029C130.083 184.093 148.042 152.634 153.347 143.561L132.864 133.647Z" fill="#837237"/>
<path d="M147.33 146.692C145.115 146.692 142.527 146.029 140.043 144.827C134.014 141.909 131.062 137.311 132.865 133.647C133.844 131.657 136.036 130.517 138.881 130.517C141.096 130.517 143.684 131.179 146.168 132.381C152.198 135.301 155.15 139.898 153.347 143.561C152.368 145.551 150.174 146.692 147.33 146.692Z" fill="#B29C58"/>
<path d="M144.714 135.336C140.703 133.394 136.732 133.283 135.843 135.089C134.955 136.894 137.486 139.931 141.497 141.873C145.508 143.815 149.479 143.925 150.368 142.12C151.256 140.315 148.725 137.277 144.714 135.336Z" fill="#694D29"/>
<path d="M125.45 195.077C126.834 195.077 127.955 193.675 127.955 191.946C127.955 190.216 126.834 188.815 125.45 188.815C124.066 188.815 122.945 190.216 122.945 191.946C122.945 193.675 124.066 195.077 125.45 195.077Z" fill="#B29C58"/>
<path d="M119.41 182.296C121.697 182.296 123.55 180.113 123.55 177.42C123.55 174.727 121.697 172.544 119.41 172.544C119.167 172.544 118.93 172.574 118.698 172.621C117.973 175.517 117.32 178.394 116.774 181.18C117.49 181.877 118.409 182.296 119.41 182.296Z" fill="#B29C58"/>
<path d="M136.831 166.59C134.702 166.59 132.976 168.302 132.976 170.414C132.976 172.526 134.702 174.238 136.831 174.238C137.083 174.238 137.328 174.21 137.566 174.164C138.395 172.249 139.256 170.345 140.135 168.471C139.463 167.35 138.242 166.59 136.831 166.59Z" fill="#B29C58"/>
<path d="M145.655 154.22C142.453 154.22 139.858 156.07 139.858 158.352C139.858 160.017 141.243 161.448 143.233 162.103C144.613 159.363 145.976 156.763 147.26 154.384C146.75 154.28 146.212 154.22 145.655 154.22Z" fill="#B29C58"/>
<path d="M129.626 151.33C128.884 149.384 127.776 147.834 126.677 147.029C125.886 149.15 125.068 151.448 124.25 153.863C125.513 156.845 127.618 158.778 129.081 158.229C130.616 157.653 130.86 154.564 129.626 151.33Z" fill="#B29C58"/>
<path d="M76.4798 129.933C71.595 132.041 68.1812 135.395 67.0094 140.257C66.3361 143.051 67.4041 145.959 69.6722 147.746C83.5681 158.691 98.2023 181.649 97.6827 201.119H109.96C109.96 201.119 111.815 160.348 84.8742 131.686C82.7312 129.406 79.3614 128.689 76.4798 129.933Z" fill="#B97B36"/>
<path d="M93.6368 150.583C95.02 150.583 96.2747 149.894 97.2145 148.776C95.2873 145.264 93.069 141.78 90.5203 138.397C89.2185 139.626 88.3701 141.599 88.3701 143.831C88.3701 147.56 90.7282 150.583 93.6368 150.583Z" fill="#D79554"/>
<path d="M99.6277 200.698C101.582 200.698 103.166 199.535 103.166 198.101C103.166 196.666 101.582 195.503 99.6277 195.503C98.8181 195.503 98.081 195.711 97.4849 196.047C97.6245 197.467 97.691 198.876 97.685 200.269C98.2431 200.539 98.9094 200.698 99.6277 200.698Z" fill="#D79554"/>
<path d="M83.6533 154.037C82.5451 151.703 78.8378 151.122 75.3728 152.74C75.3419 152.755 75.3134 152.771 75.2827 152.786C77.4093 154.927 79.5015 157.3 81.5036 159.855C83.564 158.147 84.507 155.835 83.6533 154.037Z" fill="#D79554"/>
<path d="M99.9496 184.347C102.443 184.347 104.464 182.548 104.464 180.328C104.464 178.109 102.443 176.31 99.9496 176.31C97.4565 176.31 95.4355 178.109 95.4355 180.328C95.4355 182.548 97.4565 184.347 99.9496 184.347Z" fill="#D79554"/>
<path d="M103.77 163.611C103.696 163.606 103.624 163.585 103.548 163.585C101.561 163.585 99.9497 165.473 99.9497 167.802C99.9497 170.131 101.561 172.02 103.548 172.02C104.502 172.02 105.364 171.577 106.008 170.866C105.369 168.506 104.629 166.079 103.77 163.611Z" fill="#D79554"/>
<path d="M282.127 173.16C261.268 178.251 244.294 188.882 235.122 201.119H306.15C319.563 201.119 330.438 190.334 330.438 177.031C330.438 175.885 330.351 174.759 330.195 173.656C316.955 169.347 299.849 168.835 282.127 173.16Z" fill="#83A6E6"/>
</g>
<defs>
<clipPath id="clip0_462_4143">
<rect width="376" height="201" fill="white"/>
</clipPath>
</defs>
</svg>
